NotoSansThaana-Bold.ufo
<glyph name="exclam" format="2">
  <advance width="428"/>
  <unicode hex="0021"/>
  <outline>
    <contour>
      <point x="197" y="223" type="curve" smooth="yes"/>
      <point x="255" y="223"/>
      <point x="262" y="262"/>
      <point x="273" y="302" type="curve" smooth="yes"/>
      <point x="292" y="371"/>
      <point x="314" y="444"/>
      <point x="330" y="496" type="curve" smooth="yes"/>
      <point x="350" y="559"/>
      <point x="364" y="603"/>
      <point x="377" y="642" type="curve" smooth="yes"/>
      <point x="388" y="676"/>
      <point x="395" y="696"/>
      <point x="395" y="714" type="curve" smooth="yes"/>
      <point x="395" y="739"/>
      <point x="380" y="756"/>
      <point x="353" y="756" type="curve" smooth="yes"/>
      <point x="326" y="756"/>
      <point x="303" y="735"/>
      <point x="277" y="690" type="curve" smooth="yes"/>
      <point x="247" y="638"/>
      <point x="220" y="564"/>
      <point x="175" y="444" type="curve" smooth="yes"/>
      <point x="140" y="352"/>
      <point x="123" y="309"/>
      <point x="123" y="286" type="curve" smooth="yes"/>
      <point x="123" y="260"/>
      <point x="141" y="223"/>
    </contour>
    <contour>
      <point x="149" y="-12" type="curve" smooth="yes"/>
      <point x="207" y="-12"/>
      <point x="265" y="45"/>
      <point x="265" y="104" type="curve" smooth="yes"/>
      <point x="265" y="154"/>
      <point x="228" y="189"/>
      <point x="183" y="189" type="curve" smooth="yes"/>
      <point x="123" y="189"/>
      <point x="67" y="132"/>
      <point x="67" y="72" type="curve" smooth="yes"/>
      <point x="67" y="22"/>
      <point x="99" y="-12"/>
    </contour>
  </outline>
</glyph>
<glyph name="parenleft" format="2">
  <advance width="520"/>
  <unicode hex="0028"/>
  <outline>
    <contour>
      <point x="259" y="-223" type="curve" smooth="yes"/>
      <point x="299" y="-223"/>
      <point x="331" y="-192"/>
      <point x="331" y="-159" type="curve" smooth="yes"/>
      <point x="331" y="-137"/>
      <point x="317" y="-112"/>
      <point x="292" y="-87" type="curve" smooth="yes"/>
      <point x="254" y="-50"/>
      <point x="226" y="31"/>
      <point x="226" y="102" type="curve" smooth="yes"/>
      <point x="226" y="319"/>
      <point x="303" y="518"/>
      <point x="476" y="593" type="curve" smooth="yes"/>
      <point x="502" y="604"/>
      <point x="558" y="619"/>
      <point x="558" y="667" type="curve" smooth="yes"/>
      <point x="558" y="693"/>
      <point x="537" y="714"/>
      <point x="507" y="714" type="curve" smooth="yes"/>
      <point x="440" y="714"/>
      <point x="367" y="678"/>
      <point x="273" y="603" type="curve"/>
      <point x="145" y="481"/>
      <point x="80" y="308"/>
      <point x="80" y="102" type="curve" smooth="yes"/>
      <point x="80" y="15"/>
      <point x="105" y="-100"/>
      <point x="182" y="-179" type="curve" smooth="yes"/>
      <point x="208" y="-205"/>
      <point x="236" y="-223"/>
    </contour>
  </outline>
</glyph>
<glyph name="parenright" format="2">
  <advance width="520"/>
  <unicode hex="0029"/>
  <outline>
    <contour>
      <point x="-13" y="-223" type="curve" smooth="yes"/>
      <point x="23" y="-223"/>
      <point x="54" y="-218"/>
      <point x="88" y="-205" type="curve" smooth="yes"/>
      <point x="265" y="-137"/>
      <point x="413" y="161"/>
      <point x="413" y="388" type="curve" smooth="yes"/>
      <point x="413" y="474"/>
      <point x="392" y="576"/>
      <point x="319" y="663" type="curve" smooth="yes"/>
      <point x="293" y="694"/>
      <point x="260" y="714"/>
      <point x="234" y="714" type="curve" smooth="yes"/>
      <point x="195" y="714"/>
      <point x="162" y="682"/>
      <point x="162" y="649" type="curve" smooth="yes"/>
      <point x="162" y="627"/>
      <point x="176" y="602"/>
      <point x="201" y="577" type="curve" smooth="yes"/>
      <point x="239" y="539"/>
      <point x="267" y="460"/>
      <point x="267" y="388" type="curve" smooth="yes"/>
      <point x="267" y="171"/>
      <point x="190" y="-29"/>
      <point x="17" y="-102" type="curve" smooth="yes"/>
      <point x="-9" y="-113"/>
      <point x="-65" y="-129"/>
      <point x="-65" y="-176" type="curve" smooth="yes"/>
      <point x="-65" y="-203"/>
      <point x="-44" y="-223"/>
    </contour>
  </outline>
</glyph>
<glyph name="comma" format="2">
  <advance width="387"/>
  <unicode hex="002C"/>
  <outline>
    <contour>
      <point x="95" y="-135" type="curve" smooth="yes"/>
      <point x="113" y="-135"/>
      <point x="137" y="-122"/>
      <point x="164" y="-95" type="curve" smooth="yes"/>
      <point x="205" y="-54"/>
      <point x="271" y="31"/>
      <point x="271" y="93" type="curve" smooth="yes"/>
      <point x="271" y="148"/>
      <point x="237" y="176"/>
      <point x="185" y="176" type="curve" smooth="yes"/>
      <point x="130" y="176"/>
      <point x="71" y="137"/>
      <point x="71" y="75" type="curve" smooth="yes"/>
      <point x="71" y="38"/>
      <point x="92" y="7"/>
      <point x="127" y="-2" type="curve"/>
      <point x="105" y="-24"/>
      <point x="84" y="-45"/>
      <point x="62" y="-68" type="curve" smooth="yes"/>
      <point x="55" y="-76"/>
      <point x="52" y="-84"/>
      <point x="52" y="-96" type="curve" smooth="yes"/>
      <point x="52" y="-115"/>
      <point x="67" y="-135"/>
    </contour>
  </outline>
</glyph>
<glyph name="period" format="2">
  <advance width="387"/>
  <unicode hex="002E"/>
  <outline>
    <contour>
      <point x="140" y="-12" type="curve" smooth="yes"/>
      <point x="199" y="-12"/>
      <point x="258" y="36"/>
      <point x="258" y="97" type="curve" smooth="yes"/>
      <point x="258" y="145"/>
      <point x="219" y="174"/>
      <point x="174" y="174" type="curve" smooth="yes"/>
      <point x="117" y="174"/>
      <point x="60" y="128"/>
      <point x="60" y="68" type="curve" smooth="yes"/>
      <point x="60" y="20"/>
      <point x="92" y="-12"/>
    </contour>
  </outline>
</glyph>
<glyph name="colon" format="2">
  <advance width="387"/>
  <unicode hex="003A"/>
  <outline>
    <contour>
      <point x="171" y="244" type="curve" smooth="yes"/>
      <point x="232" y="244"/>
      <point x="289" y="292"/>
      <point x="289" y="351" type="curve" smooth="yes"/>
      <point x="289" y="399"/>
      <point x="250" y="429"/>
      <point x="205" y="429" type="curve" smooth="yes"/>
      <point x="148" y="429"/>
      <point x="90" y="384"/>
      <point x="90" y="322" type="curve" smooth="yes"/>
      <point x="90" y="274"/>
      <point x="123" y="244"/>
    </contour>
    <contour>
      <point x="140" y="-12" type="curve" smooth="yes"/>
      <point x="199" y="-12"/>
      <point x="258" y="36"/>
      <point x="258" y="97" type="curve" smooth="yes"/>
      <point x="258" y="145"/>
      <point x="219" y="174"/>
      <point x="174" y="174" type="curve" smooth="yes"/>
      <point x="117" y="174"/>
      <point x="60" y="128"/>
      <point x="60" y="68" type="curve" smooth="yes"/>
      <point x="60" y="20"/>
      <point x="92" y="-12"/>
    </contour>
  </outline>
</glyph>
<glyph name="semicolon" format="2">
  <advance width="387"/>
  <unicode hex="003B"/>
  <outline>
    <contour>
      <point x="99" y="-135" type="curve" smooth="yes"/>
      <point x="118" y="-135"/>
      <point x="142" y="-121"/>
      <point x="168" y="-95" type="curve" smooth="yes"/>
      <point x="210" y="-54"/>
      <point x="275" y="31"/>
      <point x="275" y="93" type="curve" smooth="yes"/>
      <point x="275" y="148"/>
      <point x="241" y="176"/>
      <point x="189" y="176" type="curve" smooth="yes"/>
      <point x="134" y="176"/>
      <point x="76" y="137"/>
      <point x="76" y="75" type="curve" smooth="yes"/>
      <point x="76" y="38"/>
      <point x="97" y="7"/>
      <point x="131" y="-2" type="curve"/>
      <point x="109" y="-24"/>
      <point x="88" y="-45"/>
      <point x="71" y="-63" type="curve" smooth="yes"/>
      <point x="58" y="-76"/>
      <point x="56" y="-84"/>
      <point x="56" y="-96" type="curve" smooth="yes"/>
      <point x="56" y="-115"/>
      <point x="72" y="-135"/>
    </contour>
    <contour>
      <point x="184" y="244" type="curve" smooth="yes"/>
      <point x="243" y="244"/>
      <point x="302" y="292"/>
      <point x="302" y="351" type="curve" smooth="yes"/>
      <point x="302" y="399"/>
      <point x="263" y="429"/>
      <point x="217" y="429" type="curve" smooth="yes"/>
      <point x="161" y="429"/>
      <point x="103" y="384"/>
      <point x="103" y="322" type="curve" smooth="yes"/>
      <point x="103" y="274"/>
      <point x="136" y="244"/>
    </contour>
  </outline>
</glyph>
<glyph name="uni060C" format="2">
  <advance width="415"/>
  <unicode hex="060C"/>
  <outline>
    <contour>
      <point x="177" y="-8" type="curve" smooth="yes"/>
      <point x="232" y="-8"/>
      <point x="291" y="32"/>
      <point x="291" y="93" type="curve" smooth="yes"/>
      <point x="291" y="130"/>
      <point x="270" y="163"/>
      <point x="235" y="172" type="curve"/>
      <point x="245" y="180"/>
      <point x="260" y="193"/>
      <point x="300" y="238" type="curve" smooth="yes"/>
      <point x="307" y="246"/>
      <point x="310" y="254"/>
      <point x="310" y="266" type="curve" smooth="yes"/>
      <point x="310" y="286"/>
      <point x="295" y="305"/>
      <point x="267" y="305" type="curve" smooth="yes"/>
      <point x="249" y="305"/>
      <point x="225" y="291"/>
      <point x="199" y="264" type="curve" smooth="yes"/>
      <point x="158" y="222"/>
      <point x="91" y="138"/>
      <point x="91" y="75" type="curve" smooth="yes"/>
      <point x="91" y="21"/>
      <point x="125" y="-8"/>
    </contour>
  </outline>
</glyph>
<glyph name="uni061B" format="2">
  <advance width="387"/>
  <unicode hex="061B"/>
  <outline>
    <contour>
      <point x="203" y="284" type="curve" smooth="yes"/>
      <point x="258" y="284"/>
      <point x="317" y="323"/>
      <point x="317" y="385" type="curve" smooth="yes"/>
      <point x="317" y="422"/>
      <point x="296" y="454"/>
      <point x="261" y="463" type="curve"/>
      <point x="270" y="470"/>
      <point x="282" y="481"/>
      <point x="326" y="529" type="curve" smooth="yes"/>
      <point x="333" y="537"/>
      <point x="336" y="546"/>
      <point x="336" y="558" type="curve" smooth="yes"/>
      <point x="336" y="576"/>
      <point x="321" y="596"/>
      <point x="293" y="596" type="curve" smooth="yes"/>
      <point x="275" y="596"/>
      <point x="250" y="583"/>
      <point x="224" y="555" type="curve" smooth="yes"/>
      <point x="184" y="513"/>
      <point x="117" y="429"/>
      <point x="117" y="367" type="curve" smooth="yes"/>
      <point x="117" y="312"/>
      <point x="151" y="284"/>
    </contour>
    <contour>
      <point x="140" y="-12" type="curve" smooth="yes"/>
      <point x="199" y="-12"/>
      <point x="258" y="36"/>
      <point x="258" y="97" type="curve" smooth="yes"/>
      <point x="258" y="145"/>
      <point x="219" y="174"/>
      <point x="174" y="174" type="curve" smooth="yes"/>
      <point x="117" y="174"/>
      <point x="60" y="128"/>
      <point x="60" y="68" type="curve" smooth="yes"/>
      <point x="60" y="20"/>
      <point x="92" y="-12"/>
    </contour>
  </outline>
</glyph>
<glyph name="uni061F" format="2">
  <advance width="479"/>
  <unicode hex="061F"/>
  <outline>
    <contour>
      <point x="219" y="211" type="curve" smooth="yes"/>
      <point x="239" y="211"/>
      <point x="263" y="221"/>
      <point x="279" y="241" type="curve" smooth="yes"/>
      <point x="303" y="271"/>
      <point x="313" y="299"/>
      <point x="313" y="334" type="curve" smooth="yes"/>
      <point x="313" y="371"/>
      <point x="299" y="399"/>
      <point x="279" y="434" type="curve" smooth="yes"/>
      <point x="262" y="463"/>
      <point x="251" y="484"/>
      <point x="251" y="519" type="curve" smooth="yes"/>
      <point x="251" y="563"/>
      <point x="291" y="596"/>
      <point x="335" y="596" type="curve" smooth="yes"/>
      <point x="362" y="596"/>
      <point x="385" y="583"/>
      <point x="405" y="570" type="curve" smooth="yes"/>
      <point x="426" y="556"/>
      <point x="444" y="543"/>
      <point x="461" y="543" type="curve" smooth="yes"/>
      <point x="479" y="543"/>
      <point x="512" y="594"/>
      <point x="512" y="632" type="curve" smooth="yes"/>
      <point x="512" y="645"/>
      <point x="509" y="659"/>
      <point x="495" y="669" type="curve" smooth="yes"/>
      <point x="454" y="698"/>
      <point x="411" y="714"/>
      <point x="349" y="714" type="curve" smooth="yes"/>
      <point x="186" y="714"/>
      <point x="110" y="620"/>
      <point x="110" y="543" type="curve" smooth="yes"/>
      <point x="110" y="478"/>
      <point x="132" y="444"/>
      <point x="158" y="404" type="curve" smooth="yes"/>
      <point x="174" y="380"/>
      <point x="192" y="350"/>
      <point x="192" y="325" type="curve" smooth="yes"/>
      <point x="192" y="301"/>
      <point x="188" y="284"/>
      <point x="182" y="266" type="curve" smooth="yes"/>
      <point x="179" y="256"/>
      <point x="174" y="243"/>
      <point x="174" y="230" type="curve" smooth="yes"/>
      <point x="174" y="212"/>
      <point x="203" y="211"/>
    </contour>
    <contour>
      <point x="150" y="-22" type="curve" smooth="yes"/>
      <point x="217" y="-22"/>
      <point x="283" y="31"/>
      <point x="283" y="98" type="curve" smooth="yes"/>
      <point x="283" y="151"/>
      <point x="238" y="185"/>
      <point x="188" y="185" type="curve" smooth="yes"/>
      <point x="125" y="185"/>
      <point x="61" y="133"/>
      <point x="61" y="67" type="curve" smooth="yes"/>
      <point x="61" y="13"/>
      <point x="97" y="-22"/>
    </contour>
  </outline>
</glyph>
<glyph name="uni0660" format="2">
  <advance width="287"/>
  <unicode hex="0660"/>
  <outline>
    <contour>
      <point x="64" y="401" type="curve" smooth="yes"/>
      <point x="64" y="349"/>
      <point x="108" y="269"/>
      <point x="143" y="269" type="curve" smooth="yes"/>
      <point x="174" y="269"/>
      <point x="230" y="289"/>
      <point x="230" y="323" type="curve" smooth="yes"/>
      <point x="230" y="387"/>
      <point x="194" y="467"/>
      <point x="152" y="467" type="curve" smooth="yes"/>
      <point x="114" y="467"/>
      <point x="64" y="443"/>
    </contour>
  </outline>
</glyph>
<glyph name="uni0661" format="2">
  <advance width="376"/>
  <unicode hex="0661"/>
  <outline>
    <contour>
      <point x="178" y="121" type="curve" smooth="yes"/>
      <point x="212" y="121"/>
      <point x="237" y="137"/>
      <point x="251" y="163" type="curve" smooth="yes"/>
      <point x="269" y="196"/>
      <point x="276" y="252"/>
      <point x="276" y="298" type="curve" smooth="yes"/>
      <point x="276" y="389"/>
      <point x="270" y="463"/>
      <point x="254" y="542" type="curve" smooth="yes"/>
      <point x="241" y="607"/>
      <point x="224" y="659"/>
      <point x="197" y="699" type="curve" smooth="yes"/>
      <point x="180" y="724"/>
      <point x="158" y="728"/>
      <point x="135" y="728" type="curve" smooth="yes"/>
      <point x="95" y="728"/>
      <point x="45" y="696"/>
      <point x="45" y="652" type="curve" smooth="yes"/>
      <point x="45" y="631"/>
      <point x="51" y="612"/>
      <point x="63" y="591" type="curve" smooth="yes"/>
      <point x="89" y="543"/>
      <point x="107" y="481"/>
      <point x="117" y="431" type="curve" smooth="yes"/>
      <point x="126" y="387"/>
      <point x="136" y="328"/>
      <point x="136" y="287" type="curve" smooth="yes"/>
      <point x="136" y="260"/>
      <point x="135" y="228"/>
      <point x="133" y="209" type="curve" smooth="yes"/>
      <point x="132" y="196"/>
      <point x="129" y="181"/>
      <point x="129" y="163" type="curve" smooth="yes"/>
      <point x="129" y="139"/>
      <point x="148" y="121"/>
    </contour>
  </outline>
</glyph>
<glyph name="uni0662" format="2">
  <advance width="513"/>
  <unicode hex="0662"/>
  <outline>
    <contour>
      <point x="453" y="714" type="curve" smooth="yes"/>
      <point x="433" y="714"/>
      <point x="416" y="705"/>
      <point x="399" y="686" type="curve" smooth="yes"/>
      <point x="368" y="651"/>
      <point x="343" y="633"/>
      <point x="299" y="633" type="curve" smooth="yes"/>
      <point x="265" y="633"/>
      <point x="222" y="645"/>
      <point x="197" y="664" type="curve"/>
      <point x="190" y="677"/>
      <point x="183" y="689"/>
      <point x="176" y="699" type="curve" smooth="yes"/>
      <point x="159" y="721"/>
      <point x="137" y="728"/>
      <point x="118" y="728" type="curve" smooth="yes"/>
      <point x="74" y="728"/>
      <point x="30" y="696"/>
      <point x="30" y="657" type="curve" smooth="yes"/>
      <point x="30" y="631"/>
      <point x="35" y="611"/>
      <point x="48" y="591" type="curve" smooth="yes"/>
      <point x="113" y="489"/>
      <point x="134" y="413"/>
      <point x="136" y="287" type="curve" smooth="yes"/>
      <point x="136" y="260"/>
      <point x="135" y="228"/>
      <point x="133" y="209" type="curve" smooth="yes"/>
      <point x="132" y="196"/>
      <point x="130" y="181"/>
      <point x="130" y="163" type="curve" smooth="yes"/>
      <point x="130" y="139"/>
      <point x="154" y="121"/>
      <point x="184" y="121" type="curve" smooth="yes"/>
      <point x="216" y="121"/>
      <point x="237" y="137"/>
      <point x="251" y="163" type="curve" smooth="yes"/>
      <point x="269" y="196"/>
      <point x="276" y="252"/>
      <point x="276" y="298" type="curve" smooth="yes"/>
      <point x="276" y="375"/>
      <point x="262" y="470"/>
      <point x="239" y="552" type="curve"/>
      <point x="273" y="524"/>
      <point x="310" y="512"/>
      <point x="349" y="512" type="curve" smooth="yes"/>
      <point x="401" y="512"/>
      <point x="445" y="535"/>
      <point x="478" y="573" type="curve" smooth="yes"/>
      <point x="493" y="591"/>
      <point x="503" y="608"/>
      <point x="503" y="647" type="curve" smooth="yes"/>
      <point x="503" y="688"/>
      <point x="481" y="714"/>
    </contour>
  </outline>
</glyph>
<glyph name="uni0663" format="2">
  <advance width="584"/>
  <unicode hex="0663"/>
  <outline>
    <contour>
      <point x="214" y="121" type="curve" smooth="yes"/>
      <point x="246" y="121"/>
      <point x="267" y="137"/>
      <point x="281" y="163" type="curve" smooth="yes"/>
      <point x="299" y="196"/>
      <point x="306" y="252"/>
      <point x="306" y="298" type="curve" smooth="yes"/>
      <point x="306" y="358"/>
      <point x="296" y="427"/>
      <point x="278" y="493" type="curve"/>
      <point x="279" y="493"/>
      <point x="283" y="494"/>
      <point x="287" y="495" type="curve" smooth="yes"/>
      <point x="311" y="501"/>
      <point x="331" y="513"/>
      <point x="349" y="530" type="curve"/>
      <point x="373" y="516"/>
      <point x="399" y="511"/>
      <point x="433" y="511" type="curve" smooth="yes"/>
      <point x="494" y="511"/>
      <point x="535" y="557"/>
      <point x="556" y="606" type="curve" smooth="yes"/>
      <point x="566" y="629"/>
      <point x="574" y="656"/>
      <point x="574" y="669" type="curve" smooth="yes"/>
      <point x="574" y="710"/>
      <point x="537" y="734"/>
      <point x="510" y="734" type="curve" smooth="yes"/>
      <point x="485" y="734"/>
      <point x="467" y="718"/>
      <point x="456" y="676" type="curve" smooth="yes"/>
      <point x="446" y="639"/>
      <point x="429" y="603"/>
      <point x="405" y="603" type="curve" smooth="yes"/>
      <point x="403" y="603"/>
      <point x="399" y="603"/>
      <point x="397" y="604" type="curve"/>
      <point x="400" y="610"/>
      <point x="403" y="618"/>
      <point x="405" y="625" type="curve" smooth="yes"/>
      <point x="408" y="635"/>
      <point x="412" y="649"/>
      <point x="412" y="669" type="curve" smooth="yes"/>
      <point x="412" y="700"/>
      <point x="377" y="724"/>
      <point x="344" y="724" type="curve" smooth="yes"/>
      <point x="321" y="724"/>
      <point x="298" y="714"/>
      <point x="289" y="687" type="curve" smooth="yes"/>
      <point x="277" y="652"/>
      <point x="265" y="618"/>
      <point x="244" y="607" type="curve" smooth="yes"/>
      <point x="242" y="606"/>
      <point x="240" y="605"/>
      <point x="239" y="605" type="curve"/>
      <point x="223" y="641"/>
      <point x="204" y="673"/>
      <point x="184" y="699" type="curve" smooth="yes"/>
      <point x="165" y="724"/>
      <point x="143" y="730"/>
      <point x="117" y="730" type="curve" smooth="yes"/>
      <point x="79" y="730"/>
      <point x="30" y="696"/>
      <point x="30" y="657" type="curve" smooth="yes"/>
      <point x="30" y="631"/>
      <point x="35" y="611"/>
      <point x="57" y="585" type="curve" smooth="yes"/>
      <point x="137" y="489"/>
      <point x="166" y="394"/>
      <point x="166" y="284" type="curve" smooth="yes"/>
      <point x="166" y="257"/>
      <point x="165" y="228"/>
      <point x="163" y="209" type="curve" smooth="yes"/>
      <point x="162" y="196"/>
      <point x="160" y="181"/>
      <point x="160" y="163" type="curve" smooth="yes"/>
      <point x="160" y="139"/>
      <point x="184" y="121"/>
    </contour>
  </outline>
</glyph>
<glyph name="uni0664" format="2">
  <advance width="418"/>
  <unicode hex="0664"/>
  <outline>
    <contour>
      <point x="306" y="125" type="curve" smooth="yes"/>
      <point x="368" y="125"/>
      <point x="408" y="150"/>
      <point x="408" y="203" type="curve" smooth="yes"/>
      <point x="408" y="245"/>
      <point x="389" y="266"/>
      <point x="362" y="266" type="curve" smooth="yes"/>
      <point x="330" y="266"/>
      <point x="317" y="263"/>
      <point x="287" y="263" type="curve" smooth="yes"/>
      <point x="230" y="263"/>
      <point x="200" y="287"/>
      <point x="200" y="312" type="curve" smooth="yes"/>
      <point x="200" y="333"/>
      <point x="214" y="356"/>
      <point x="243" y="385" type="curve" smooth="yes"/>
      <point x="273" y="414"/>
      <point x="312" y="429"/>
      <point x="312" y="459" type="curve" smooth="yes"/>
      <point x="312" y="482"/>
      <point x="306" y="494"/>
      <point x="275" y="505" type="curve" smooth="yes"/>
      <point x="234" y="520"/>
      <point x="206" y="531"/>
      <point x="190" y="542" type="curve"/>
      <point x="223" y="565"/>
      <point x="265" y="583"/>
      <point x="323" y="610" type="curve" smooth="yes"/>
      <point x="350" y="623"/>
      <point x="362" y="640"/>
      <point x="362" y="662" type="curve" smooth="yes"/>
      <point x="362" y="689"/>
      <point x="336" y="733"/>
      <point x="300" y="733" type="curve" smooth="yes"/>
      <point x="280" y="733"/>
      <point x="248" y="722"/>
      <point x="211" y="700" type="curve" smooth="yes"/>
      <point x="165" y="673"/>
      <point x="124" y="641"/>
      <point x="71" y="599" type="curve" smooth="yes"/>
      <point x="51" y="583"/>
      <point x="40" y="567"/>
      <point x="40" y="542" type="curve" smooth="yes"/>
      <point x="40" y="523"/>
      <point x="54" y="502"/>
      <point x="71" y="491" type="curve" smooth="yes"/>
      <point x="103" y="470"/>
      <point x="149" y="452"/>
      <point x="156" y="452" type="curve"/>
      <point x="96" y="413"/>
      <point x="42" y="361"/>
      <point x="42" y="283" type="curve" smooth="yes"/>
      <point x="42" y="186"/>
      <point x="172" y="125"/>
    </contour>
  </outline>
</glyph>
<glyph name="uni0665" format="2">
  <advance width="521"/>
  <unicode hex="0665"/>
  <outline>
    <contour>
      <point x="253" y="135" type="curve" smooth="yes"/>
      <point x="420" y="135"/>
      <point x="491" y="225"/>
      <point x="491" y="336" type="curve" smooth="yes"/>
      <point x="491" y="498"/>
      <point x="383" y="688"/>
      <point x="261" y="688" type="curve" smooth="yes"/>
      <point x="156" y="688"/>
      <point x="30" y="488"/>
      <point x="30" y="331" type="curve" smooth="yes"/>
      <point x="30" y="197"/>
      <point x="115" y="135"/>
    </contour>
    <contour>
      <point x="254" y="272" type="curve" smooth="yes"/>
      <point x="190" y="272"/>
      <point x="152" y="297"/>
      <point x="152" y="343" type="curve" smooth="yes"/>
      <point x="152" y="429"/>
      <point x="212" y="547"/>
      <point x="257" y="547" type="curve" smooth="yes"/>
      <point x="319" y="547"/>
      <point x="365" y="429"/>
      <point x="365" y="344" type="curve" smooth="yes"/>
      <point x="365" y="302"/>
      <point x="329" y="272"/>
    </contour>
  </outline>
</glyph>
<glyph name="uni0666" format="2">
  <advance width="521"/>
  <unicode hex="0666"/>
  <outline>
    <contour>
      <point x="413" y="121" type="curve" smooth="yes"/>
      <point x="457" y="121"/>
      <point x="501" y="153"/>
      <point x="501" y="192" type="curve" smooth="yes"/>
      <point x="501" y="218"/>
      <point x="495" y="237"/>
      <point x="483" y="258" type="curve" smooth="yes"/>
      <point x="463" y="293"/>
      <point x="447" y="325"/>
      <point x="434" y="356" type="curve" smooth="yes"/>
      <point x="409" y="416"/>
      <point x="396" y="496"/>
      <point x="395" y="570" type="curve" smooth="yes"/>
      <point x="395" y="597"/>
      <point x="397" y="621"/>
      <point x="398" y="640" type="curve" smooth="yes"/>
      <point x="399" y="653"/>
      <point x="401" y="668"/>
      <point x="401" y="686" type="curve" smooth="yes"/>
      <point x="401" y="710"/>
      <point x="377" y="728"/>
      <point x="347" y="728" type="curve" smooth="yes"/>
      <point x="300" y="728"/>
      <point x="278" y="702"/>
      <point x="269" y="682" type="curve"/>
      <point x="255" y="671"/>
      <point x="229" y="660"/>
      <point x="204" y="660" type="curve" smooth="yes"/>
      <point x="179" y="660"/>
      <point x="154" y="667"/>
      <point x="128" y="687" type="curve" smooth="yes"/>
      <point x="105" y="705"/>
      <point x="88" y="714"/>
      <point x="68" y="714" type="curve" smooth="yes"/>
      <point x="35" y="714"/>
      <point x="10" y="684"/>
      <point x="10" y="643" type="curve" smooth="yes"/>
      <point x="10" y="604"/>
      <point x="23" y="587"/>
      <point x="43" y="570" type="curve" smooth="yes"/>
      <point x="64" y="552"/>
      <point x="111" y="532"/>
      <point x="172" y="532" type="curve" smooth="yes"/>
      <point x="201" y="532"/>
      <point x="229" y="535"/>
      <point x="255" y="542" type="curve"/>
      <point x="255" y="534"/>
      <point x="255" y="520"/>
      <point x="255" y="512" type="curve" smooth="yes"/>
      <point x="255" y="437"/>
      <point x="277" y="335"/>
      <point x="304" y="255" type="curve" smooth="yes"/>
      <point x="318" y="213"/>
      <point x="336" y="176"/>
      <point x="355" y="150" type="curve" smooth="yes"/>
      <point x="371" y="128"/>
      <point x="394" y="121"/>
    </contour>
  </outline>
</glyph>
<glyph name="uni0667" format="2">
  <advance width="521"/>
  <unicode hex="0667"/>
  <outline>
    <contour>
      <point x="349" y="217" type="curve" smooth="yes"/>
      <point x="389" y="346"/>
      <point x="450" y="505"/>
      <point x="494" y="593" type="curve" smooth="yes"/>
      <point x="500" y="605"/>
      <point x="511" y="626"/>
      <point x="511" y="641" type="curve" smooth="yes"/>
      <point x="511" y="665"/>
      <point x="477" y="698"/>
      <point x="415" y="698" type="curve" smooth="yes"/>
      <point x="388" y="698"/>
      <point x="371" y="679"/>
      <point x="359" y="655" type="curve" smooth="yes"/>
      <point x="325" y="587"/>
      <point x="289" y="465"/>
      <point x="263" y="330" type="curve"/>
      <point x="222" y="510"/>
      <point x="182" y="651"/>
      <point x="159" y="674" type="curve" smooth="yes"/>
      <point x="144" y="689"/>
      <point x="131" y="696"/>
      <point x="98" y="696" type="curve" smooth="yes"/>
      <point x="53" y="696"/>
      <point x="10" y="670"/>
      <point x="10" y="644" type="curve" smooth="yes"/>
      <point x="10" y="630"/>
      <point x="16" y="622"/>
      <point x="26" y="603" type="curve" smooth="yes"/>
      <point x="52" y="553"/>
      <point x="116" y="387"/>
      <point x="175" y="203" type="curve" smooth="yes"/>
      <point x="191" y="153"/>
      <point x="215" y="139"/>
      <point x="253" y="139" type="curve" smooth="yes"/>
      <point x="301" y="139"/>
      <point x="328" y="150"/>
    </contour>
  </outline>
</glyph>
<glyph name="uni0668" format="2">
  <advance width="521"/>
  <unicode hex="0668"/>
  <outline>
    <contour>
      <point x="106" y="139" type="curve" smooth="yes"/>
      <point x="133" y="139"/>
      <point x="150" y="158"/>
      <point x="162" y="182" type="curve" smooth="yes"/>
      <point x="196" y="250"/>
      <point x="232" y="372"/>
      <point x="258" y="507" type="curve"/>
      <point x="299" y="327"/>
      <point x="340" y="187"/>
      <point x="362" y="163" type="curve" smooth="yes"/>
      <point x="376" y="147"/>
      <point x="390" y="141"/>
      <point x="423" y="141" type="curve" smooth="yes"/>
      <point x="468" y="141"/>
      <point x="511" y="167"/>
      <point x="511" y="193" type="curve" smooth="yes"/>
      <point x="511" y="207"/>
      <point x="505" y="215"/>
      <point x="495" y="234" type="curve" smooth="yes"/>
      <point x="469" y="283"/>
      <point x="405" y="450"/>
      <point x="346" y="634" type="curve" smooth="yes"/>
      <point x="330" y="684"/>
      <point x="306" y="698"/>
      <point x="268" y="698" type="curve" smooth="yes"/>
      <point x="220" y="698"/>
      <point x="193" y="687"/>
      <point x="172" y="620" type="curve" smooth="yes"/>
      <point x="132" y="491"/>
      <point x="79" y="330"/>
      <point x="27" y="244" type="curve" smooth="yes"/>
      <point x="20" y="233"/>
      <point x="10" y="211"/>
      <point x="10" y="196" type="curve" smooth="yes"/>
      <point x="10" y="172"/>
      <point x="44" y="139"/>
    </contour>
  </outline>
</glyph>
<glyph name="uni0669" format="2">
  <advance width="521"/>
  <unicode hex="0669"/>
  <outline>
    <contour>
      <point x="433" y="114" type="curve" smooth="yes"/>
      <point x="480" y="114"/>
      <point x="511" y="136"/>
      <point x="511" y="182" type="curve" smooth="yes"/>
      <point x="511" y="203"/>
      <point x="500" y="225"/>
      <point x="475" y="272" type="curve" smooth="yes"/>
      <point x="460" y="299"/>
      <point x="451" y="320"/>
      <point x="443" y="346" type="curve" smooth="yes"/>
      <point x="432" y="381"/>
      <point x="424" y="424"/>
      <point x="415" y="499" type="curve" smooth="yes"/>
      <point x="393" y="675"/>
      <point x="275" y="718"/>
      <point x="191" y="718" type="curve" smooth="yes"/>
      <point x="101" y="718"/>
      <point x="20" y="658"/>
      <point x="20" y="557" type="curve" smooth="yes"/>
      <point x="20" y="442"/>
      <point x="99" y="377"/>
      <point x="192" y="377" type="curve" smooth="yes"/>
      <point x="237" y="377"/>
      <point x="267" y="390"/>
      <point x="292" y="406" type="curve"/>
      <point x="298" y="351"/>
      <point x="306" y="292"/>
      <point x="317" y="251" type="curve" smooth="yes"/>
      <point x="328" y="208"/>
      <point x="346" y="162"/>
      <point x="365" y="144" type="curve" smooth="yes"/>
      <point x="384" y="126"/>
      <point x="403" y="114"/>
    </contour>
    <contour>
      <point x="216" y="496" type="curve" smooth="yes"/>
      <point x="166" y="496"/>
      <point x="141" y="520"/>
      <point x="141" y="557" type="curve" smooth="yes"/>
      <point x="141" y="583"/>
      <point x="156" y="605"/>
      <point x="186" y="605" type="curve" smooth="yes"/>
      <point x="211" y="605"/>
      <point x="267" y="593"/>
      <point x="275" y="513" type="curve"/>
      <point x="263" y="504"/>
      <point x="234" y="496"/>
    </contour>
  </outline>
</glyph>
<glyph name="uni066A" format="2">
  <advance width="601"/>
  <unicode hex="066A"/>
  <outline>
    <contour>
      <point x="222" y="142" type="curve" smooth="yes"/>
      <point x="240" y="142"/>
      <point x="255" y="152"/>
      <point x="261" y="169" type="curve" smooth="yes"/>
      <point x="274" y="205"/>
      <point x="275" y="239"/>
      <point x="297" y="288" type="curve" smooth="yes"/>
      <point x="314" y="325"/>
      <point x="340" y="378"/>
      <point x="364" y="417" type="curve" smooth="yes"/>
      <point x="395" y="466"/>
      <point x="448" y="532"/>
      <point x="489" y="569" type="curve" smooth="yes"/>
      <point x="507" y="585"/>
      <point x="521" y="600"/>
      <point x="527" y="620" type="curve" smooth="yes"/>
      <point x="529" y="627"/>
      <point x="530" y="633"/>
      <point x="530" y="640" type="curve" smooth="yes"/>
      <point x="530" y="685"/>
      <point x="480" y="729"/>
      <point x="437" y="729" type="curve" smooth="yes"/>
      <point x="425" y="729"/>
      <point x="413" y="725"/>
      <point x="400" y="716" type="curve" smooth="yes"/>
      <point x="361" y="689"/>
      <point x="312" y="635"/>
      <point x="273" y="568" type="curve" smooth="yes"/>
      <point x="216" y="470"/>
      <point x="145" y="319"/>
      <point x="145" y="230" type="curve" smooth="yes"/>
      <point x="145" y="180"/>
      <point x="178" y="142"/>
    </contour>
    <contour>
      <point x="125" y="516" type="curve" smooth="yes"/>
      <point x="156" y="516"/>
      <point x="212" y="536"/>
      <point x="212" y="570" type="curve" smooth="yes"/>
      <point x="212" y="634"/>
      <point x="176" y="714"/>
      <point x="134" y="714" type="curve" smooth="yes"/>
      <point x="96" y="714"/>
      <point x="46" y="690"/>
      <point x="46" y="648" type="curve" smooth="yes"/>
      <point x="46" y="596"/>
      <point x="90" y="516"/>
    </contour>
    <contour>
      <point x="468" y="202" type="curve" smooth="yes"/>
      <point x="499" y="202"/>
      <point x="555" y="222"/>
      <point x="555" y="256" type="curve" smooth="yes"/>
      <point x="555" y="320"/>
      <point x="519" y="400"/>
      <point x="477" y="400" type="curve" smooth="yes"/>
      <point x="439" y="400"/>
      <point x="389" y="376"/>
      <point x="389" y="334" type="curve" smooth="yes"/>
      <point x="389" y="282"/>
      <point x="433" y="202"/>
    </contour>
  </outline>
</glyph>
<glyph name="uni066B" format="2">
  <advance width="353"/>
  <unicode hex="066B"/>
  <outline>
    <contour>
      <point x="116" y="10" type="curve" smooth="yes"/>
      <point x="134" y="10"/>
      <point x="158" y="24"/>
      <point x="185" y="50" type="curve" smooth="yes"/>
      <point x="227" y="90"/>
      <point x="292" y="176"/>
      <point x="292" y="238" type="curve" smooth="yes"/>
      <point x="292" y="293"/>
      <point x="258" y="321"/>
      <point x="206" y="321" type="curve" smooth="yes"/>
      <point x="151" y="321"/>
      <point x="92" y="282"/>
      <point x="92" y="220" type="curve" smooth="yes"/>
      <point x="92" y="183"/>
      <point x="113" y="152"/>
      <point x="148" y="143" type="curve"/>
      <point x="126" y="121"/>
      <point x="105" y="100"/>
      <point x="83" y="77" type="curve" smooth="yes"/>
      <point x="75" y="69"/>
      <point x="73" y="61"/>
      <point x="73" y="49" type="curve" smooth="yes"/>
      <point x="73" y="30"/>
      <point x="88" y="10"/>
    </contour>
  </outline>
</glyph>
<glyph name="uni066C" format="2">
  <advance width="353"/>
  <unicode hex="066C"/>
  <outline>
    <contour>
      <point x="237" y="423" type="curve" smooth="yes"/>
      <point x="219" y="423"/>
      <point x="195" y="409"/>
      <point x="168" y="383" type="curve" smooth="yes"/>
      <point x="126" y="343"/>
      <point x="61" y="257"/>
      <point x="61" y="195" type="curve" smooth="yes"/>
      <point x="61" y="140"/>
      <point x="95" y="112"/>
      <point x="147" y="112" type="curve" smooth="yes"/>
      <point x="202" y="112"/>
      <point x="261" y="151"/>
      <point x="261" y="213" type="curve" smooth="yes"/>
      <point x="261" y="250"/>
      <point x="240" y="281"/>
      <point x="205" y="290" type="curve"/>
      <point x="227" y="312"/>
      <point x="248" y="333"/>
      <point x="270" y="356" type="curve" smooth="yes"/>
      <point x="277" y="364"/>
      <point x="280" y="372"/>
      <point x="280" y="384" type="curve" smooth="yes"/>
      <point x="280" y="403"/>
      <point x="265" y="423"/>
    </contour>
  </outline>
</glyph>
<glyph name="uni0780" format="2">
  <advance width="547"/>
  <unicode hex="0780"/>
  <outline>
    <contour>
      <point x="93" y="-11" type="curve" smooth="yes"/>
      <point x="196" y="-11"/>
      <point x="284" y="67"/>
      <point x="407" y="178" type="curve" smooth="yes"/>
      <point x="478" y="242"/>
      <point x="495" y="262"/>
      <point x="509" y="286" type="curve" smooth="yes"/>
      <point x="521" y="306"/>
      <point x="525" y="323"/>
      <point x="525" y="336" type="curve" smooth="yes"/>
      <point x="525" y="368"/>
      <point x="506" y="390"/>
      <point x="467" y="390" type="curve" smooth="yes"/>
      <point x="441" y="390"/>
      <point x="420" y="378"/>
      <point x="392" y="355" type="curve" smooth="yes"/>
      <point x="361" y="330"/>
      <point x="307" y="283"/>
      <point x="263" y="249" type="curve" smooth="yes"/>
      <point x="217" y="214"/>
      <point x="151" y="165"/>
      <point x="87" y="148" type="curve" smooth="yes"/>
      <point x="37" y="135"/>
      <point x="12" y="106"/>
      <point x="12" y="62" type="curve" smooth="yes"/>
      <point x="12" y="16"/>
      <point x="44" y="-11"/>
    </contour>
  </outline>
</glyph>
<glyph name="uni0781" format="2">
  <advance width="701"/>
  <unicode hex="0781"/>
  <outline>
    <contour>
      <point x="15" y="-77" type="curve" smooth="yes"/>
      <point x="52" y="-77"/>
      <point x="80" y="-67"/>
      <point x="135" y="-30" type="curve" smooth="yes"/>
      <point x="210" y="20"/>
      <point x="265" y="75"/>
      <point x="368" y="193" type="curve"/>
      <point x="376" y="193"/>
      <point x="380" y="193"/>
      <point x="404" y="193" type="curve" smooth="yes"/>
      <point x="442" y="193"/>
      <point x="509" y="201"/>
      <point x="603" y="258" type="curve" smooth="yes"/>
      <point x="658" y="291"/>
      <point x="686" y="327"/>
      <point x="686" y="375" type="curve" smooth="yes"/>
      <point x="686" y="402"/>
      <point x="664" y="427"/>
      <point x="626" y="427" type="curve" smooth="yes"/>
      <point x="606" y="427"/>
      <point x="584" y="415"/>
      <point x="559" y="391" type="curve" smooth="yes"/>
      <point x="531" y="364"/>
      <point x="495" y="350"/>
      <point x="466" y="346" type="curve"/>
      <point x="439" y="384"/>
      <point x="395" y="409"/>
      <point x="335" y="409" type="curve" smooth="yes"/>
      <point x="267" y="409"/>
      <point x="214" y="364"/>
      <point x="214" y="300" type="curve" smooth="yes"/>
      <point x="214" y="283"/>
      <point x="219" y="256"/>
      <point x="230" y="239" type="curve"/>
      <point x="208" y="209"/>
      <point x="155" y="152"/>
      <point x="91" y="120" type="curve" smooth="yes"/>
      <point x="46" y="97"/>
      <point x="26" y="87"/>
      <point x="1" y="79" type="curve" smooth="yes"/>
      <point x="-41" y="65"/>
      <point x="-62" y="40"/>
      <point x="-62" y="3" type="curve" smooth="yes"/>
      <point x="-62" y="-49"/>
      <point x="-31" y="-77"/>
    </contour>
  </outline>
</glyph>
<glyph name="uni0782" format="2">
  <advance width="839"/>
  <unicode hex="0782"/>
  <outline>
    <contour>
      <point x="29" y="-77" type="curve" smooth="yes"/>
      <point x="51" y="-77"/>
      <point x="80" y="-69"/>
      <point x="106" y="-53" type="curve" smooth="yes"/>
      <point x="173" y="-13"/>
      <point x="283" y="90"/>
      <point x="354" y="196" type="curve"/>
      <point x="359" y="195"/>
      <point x="366" y="194"/>
      <point x="390" y="194" type="curve" smooth="yes"/>
      <point x="419" y="194"/>
      <point x="453" y="199"/>
      <point x="495" y="217" type="curve"/>
      <point x="521" y="193"/>
      <point x="545" y="184"/>
      <point x="593" y="184" type="curve" smooth="yes"/>
      <point x="683" y="184"/>
      <point x="747" y="215"/>
      <point x="799" y="288" type="curve" smooth="yes"/>
      <point x="816" y="312"/>
      <point x="824" y="339"/>
      <point x="824" y="368" type="curve" smooth="yes"/>
      <point x="824" y="408"/>
      <point x="800" y="431"/>
      <point x="767" y="431" type="curve" smooth="yes"/>
      <point x="733" y="431"/>
      <point x="715" y="419"/>
      <point x="695" y="383" type="curve" smooth="yes"/>
      <point x="676" y="349"/>
      <point x="658" y="324"/>
      <point x="641" y="324" type="curve" smooth="yes"/>
      <point x="637" y="324"/>
      <point x="628" y="324"/>
      <point x="626" y="324" type="curve"/>
      <point x="627" y="330"/>
      <point x="628" y="337"/>
      <point x="628" y="345" type="curve" smooth="yes"/>
      <point x="628" y="396"/>
      <point x="600" y="417"/>
      <point x="561" y="417" type="curve" smooth="yes"/>
      <point x="532" y="417"/>
      <point x="512" y="399"/>
      <point x="501" y="376" type="curve" smooth="yes"/>
      <point x="494" y="362"/>
      <point x="483" y="340"/>
      <point x="472" y="332" type="curve"/>
      <point x="456" y="371"/>
      <point x="406" y="409"/>
      <point x="342" y="409" type="curve" smooth="yes"/>
      <point x="271" y="409"/>
      <point x="215" y="356"/>
      <point x="215" y="300" type="curve" smooth="yes"/>
      <point x="215" y="283"/>
      <point x="219" y="253"/>
      <point x="229" y="236" type="curve"/>
      <point x="147" y="161"/>
      <point x="110" y="126"/>
      <point x="2" y="79" type="curve" smooth="yes"/>
      <point x="-37" y="62"/>
      <point x="-61" y="40"/>
      <point x="-61" y="3" type="curve" smooth="yes"/>
      <point x="-61" y="-49"/>
      <point x="-30" y="-77"/>
    </contour>
  </outline>
</glyph>
<glyph name="uni0783" format="2">
  <advance width="653"/>
  <unicode hex="0783"/>
  <outline>
    <contour>
      <point x="24" y="-80" type="curve" smooth="yes"/>
      <point x="66" y="-80"/>
      <point x="126" y="-52"/>
      <point x="199" y="2" type="curve" smooth="yes"/>
      <point x="266" y="52"/>
      <point x="302" y="88"/>
      <point x="382" y="157" type="curve"/>
      <point x="426" y="145"/>
      <point x="468" y="140"/>
      <point x="506" y="140" type="curve" smooth="yes"/>
      <point x="580" y="140"/>
      <point x="624" y="163"/>
      <point x="624" y="200" type="curve" smooth="yes"/>
      <point x="624" y="244"/>
      <point x="584" y="255"/>
      <point x="532" y="260" type="curve" smooth="yes"/>
      <point x="524" y="261"/>
      <point x="519" y="262"/>
      <point x="515" y="263" type="curve"/>
      <point x="539" y="282"/>
      <point x="561" y="299"/>
      <point x="584" y="316" type="curve" smooth="yes"/>
      <point x="617" y="341"/>
      <point x="640" y="362"/>
      <point x="640" y="385" type="curve" smooth="yes"/>
      <point x="640" y="411"/>
      <point x="619" y="433"/>
      <point x="573" y="433" type="curve" smooth="yes"/>
      <point x="516" y="433"/>
      <point x="460" y="390"/>
      <point x="385" y="333" type="curve"/>
      <point x="381" y="343"/>
      <point x="341" y="367"/>
      <point x="306" y="367" type="curve" smooth="yes"/>
      <point x="256" y="367"/>
      <point x="226" y="337"/>
      <point x="226" y="294" type="curve" smooth="yes"/>
      <point x="226" y="263"/>
      <point x="238" y="238"/>
      <point x="254" y="221" type="curve"/>
      <point x="169" y="145"/>
      <point x="112" y="113"/>
      <point x="78" y="100" type="curve" smooth="yes"/>
      <point x="57" y="92"/>
      <point x="34" y="84"/>
      <point x="17" y="80" type="curve" smooth="yes"/>
      <point x="-34" y="68"/>
      <point x="-61" y="41"/>
      <point x="-61" y="1" type="curve" smooth="yes"/>
      <point x="-61" y="-48"/>
      <point x="-30" y="-80"/>
    </contour>
  </outline>
</glyph>
<glyph name="uni0784" format="2">
  <advance width="754"/>
  <unicode hex="0784"/>
  <outline>
    <contour>
      <point x="305" y="-16" type="curve" smooth="yes"/>
      <point x="493" y="-16"/>
      <point x="701" y="94"/>
      <point x="701" y="277" type="curve" smooth="yes"/>
      <point x="701" y="340"/>
      <point x="657" y="389"/>
      <point x="563" y="389" type="curve" smooth="yes"/>
      <point x="503" y="389"/>
      <point x="430" y="355"/>
      <point x="401" y="333" type="curve"/>
      <point x="375" y="348"/>
      <point x="330" y="362"/>
      <point x="281" y="362" type="curve" smooth="yes"/>
      <point x="134" y="362"/>
      <point x="46" y="284"/>
      <point x="46" y="186" type="curve" smooth="yes"/>
      <point x="46" y="56"/>
      <point x="153" y="-16"/>
    </contour>
    <contour>
      <point x="224" y="120" type="curve"/>
      <point x="213" y="128"/>
      <point x="203" y="145"/>
      <point x="203" y="163" type="curve" smooth="yes"/>
      <point x="203" y="207"/>
      <point x="239" y="233"/>
      <point x="278" y="233" type="curve" smooth="yes"/>
      <point x="284" y="233"/>
      <point x="290" y="232"/>
      <point x="294" y="231" type="curve"/>
      <point x="274" y="214"/>
      <point x="232" y="145"/>
    </contour>
    <contour>
      <point x="345" y="108" type="curve"/>
      <point x="361" y="146"/>
      <point x="451" y="263"/>
      <point x="519" y="263" type="curve" smooth="yes"/>
      <point x="530" y="263"/>
      <point x="536" y="259"/>
      <point x="536" y="245" type="curve" smooth="yes"/>
      <point x="536" y="199"/>
      <point x="459" y="128"/>
    </contour>
  </outline>
</glyph>
<glyph name="uni0785" format="2">
  <advance width="555"/>
  <unicode hex="0785"/>
  <outline>
    <contour>
      <point x="19" y="-81" type="curve" smooth="yes"/>
      <point x="90" y="-81"/>
      <point x="174" y="-28"/>
      <point x="343" y="93" type="curve" smooth="yes"/>
      <point x="447" y="167"/>
      <point x="485" y="208"/>
      <point x="517" y="243" type="curve" smooth="yes"/>
      <point x="536" y="264"/>
      <point x="547" y="289"/>
      <point x="547" y="311" type="curve" smooth="yes"/>
      <point x="547" y="339"/>
      <point x="527" y="360"/>
      <point x="492" y="360" type="curve" smooth="yes"/>
      <point x="473" y="360"/>
      <point x="444" y="344"/>
      <point x="411" y="312" type="curve" smooth="yes"/>
      <point x="385" y="286"/>
      <point x="361" y="265"/>
      <point x="349" y="255" type="curve"/>
      <point x="341" y="262"/>
      <point x="334" y="276"/>
      <point x="334" y="290" type="curve" smooth="yes"/>
      <point x="334" y="308"/>
      <point x="340" y="319"/>
      <point x="357" y="339" type="curve" smooth="yes"/>
      <point x="369" y="353"/>
      <point x="375" y="364"/>
      <point x="375" y="378" type="curve" smooth="yes"/>
      <point x="375" y="413"/>
      <point x="349" y="433"/>
      <point x="307" y="433" type="curve" smooth="yes"/>
      <point x="285" y="433"/>
      <point x="267" y="426"/>
      <point x="252" y="417" type="curve" smooth="yes"/>
      <point x="210" y="391"/>
      <point x="187" y="336"/>
      <point x="187" y="290" type="curve" smooth="yes"/>
      <point x="187" y="241"/>
      <point x="205" y="202"/>
      <point x="240" y="177" type="curve"/>
      <point x="198" y="153"/>
      <point x="170" y="139"/>
      <point x="123" y="118" type="curve" smooth="yes"/>
      <point x="80" y="99"/>
      <point x="47" y="85"/>
      <point x="3" y="77" type="curve" smooth="yes"/>
      <point x="-41" y="69"/>
      <point x="-72" y="45"/>
      <point x="-72" y="2" type="curve" smooth="yes"/>
      <point x="-72" y="-49"/>
      <point x="-43" y="-81"/>
    </contour>
  </outline>
</glyph>
<glyph name="uni0786" format="2">
  <advance width="567"/>
  <unicode hex="0786"/>
  <outline>
    <contour>
      <point x="94" y="-18" type="curve" smooth="yes"/>
      <point x="180" y="-18"/>
      <point x="282" y="29"/>
      <point x="428" y="166" type="curve" smooth="yes"/>
      <point x="483" y="218"/>
      <point x="494" y="232"/>
      <point x="512" y="256" type="curve" smooth="yes"/>
      <point x="529" y="278"/>
      <point x="541" y="303"/>
      <point x="541" y="325" type="curve" smooth="yes"/>
      <point x="541" y="363"/>
      <point x="521" y="390"/>
      <point x="469" y="390" type="curve" smooth="yes"/>
      <point x="435" y="390"/>
      <point x="402" y="367"/>
      <point x="377" y="330" type="curve" smooth="yes"/>
      <point x="364" y="311"/>
      <point x="331" y="266"/>
      <point x="294" y="225" type="curve" smooth="yes"/>
      <point x="278" y="208"/>
      <point x="261" y="191"/>
      <point x="245" y="177" type="curve"/>
      <point x="258" y="205"/>
      <point x="273" y="261"/>
      <point x="273" y="295" type="curve" smooth="yes"/>
      <point x="273" y="338"/>
      <point x="256" y="367"/>
      <point x="200" y="367" type="curve" smooth="yes"/>
      <point x="150" y="367"/>
      <point x="120" y="347"/>
      <point x="105" y="277" type="curve" smooth="yes"/>
      <point x="93" y="220"/>
      <point x="88" y="201"/>
      <point x="64" y="144" type="curve" smooth="yes"/>
      <point x="39" y="86"/>
      <point x="26" y="67"/>
      <point x="26" y="45" type="curve" smooth="yes"/>
      <point x="26" y="13"/>
      <point x="56" y="-18"/>
    </contour>
  </outline>
</glyph>
<glyph name="uni0787" format="2">
  <advance width="547"/>
  <unicode hex="0787"/>
  <outline>
    <contour>
      <point x="8" y="-11" type="curve" smooth="yes"/>
      <point x="64" y="-11"/>
      <point x="106" y="21"/>
      <point x="169" y="66" type="curve" smooth="yes"/>
      <point x="221" y="103"/>
      <point x="319" y="193"/>
      <point x="359" y="234" type="curve"/>
      <point x="347" y="193"/>
      <point x="327" y="160"/>
      <point x="309" y="132" type="curve" smooth="yes"/>
      <point x="294" y="108"/>
      <point x="282" y="86"/>
      <point x="282" y="55" type="curve" smooth="yes"/>
      <point x="282" y="21"/>
      <point x="312" y="-1"/>
      <point x="352" y="-1" type="curve" smooth="yes"/>
      <point x="384" y="-1"/>
      <point x="408" y="21"/>
      <point x="443" y="80" type="curve" smooth="yes"/>
      <point x="479" y="140"/>
      <point x="497" y="213"/>
      <point x="497" y="272" type="curve" smooth="yes"/>
      <point x="497" y="347"/>
      <point x="461" y="387"/>
      <point x="399" y="387" type="curve" smooth="yes"/>
      <point x="347" y="387"/>
      <point x="303" y="360"/>
      <point x="262" y="319" type="curve" smooth="yes"/>
      <point x="219" y="275"/>
      <point x="176" y="237"/>
      <point x="132" y="207" type="curve" smooth="yes"/>
      <point x="95" y="182"/>
      <point x="45" y="157"/>
      <point x="4" y="144" type="curve" smooth="yes"/>
      <point x="-39" y="130"/>
      <point x="-63" y="102"/>
      <point x="-63" y="62" type="curve" smooth="yes"/>
      <point x="-63" y="15"/>
      <point x="-35" y="-11"/>
    </contour>
  </outline>
</glyph>
<glyph name="uni0788" format="2">
  <advance width="551"/>
  <unicode hex="0788"/>
  <outline>
    <contour>
      <point x="14" y="-78" type="curve" smooth="yes"/>
      <point x="54" y="-78"/>
      <point x="103" y="-60"/>
      <point x="167" y="-22" type="curve" smooth="yes"/>
      <point x="255" y="30"/>
      <point x="414" y="150"/>
      <point x="466" y="222" type="curve" smooth="yes"/>
      <point x="491" y="257"/>
      <point x="506" y="297"/>
      <point x="506" y="338" type="curve" smooth="yes"/>
      <point x="506" y="398"/>
      <point x="453" y="432"/>
      <point x="370" y="432" type="curve" smooth="yes"/>
      <point x="264" y="432"/>
      <point x="119" y="333"/>
      <point x="119" y="218" type="curve" smooth="yes"/>
      <point x="119" y="181"/>
      <point x="140" y="151"/>
      <point x="176" y="140" type="curve"/>
      <point x="156" y="130"/>
      <point x="146" y="124"/>
      <point x="120" y="112" type="curve" smooth="yes"/>
      <point x="90" y="98"/>
      <point x="31" y="86"/>
      <point x="-2" y="74" type="curve" smooth="yes"/>
      <point x="-33" y="63"/>
      <point x="-62" y="45"/>
      <point x="-62" y="4" type="curve" smooth="yes"/>
      <point x="-62" y="-44"/>
      <point x="-33" y="-78"/>
    </contour>
    <contour>
      <point x="297" y="225" type="curve"/>
      <point x="281" y="229"/>
      <point x="272" y="238"/>
      <point x="272" y="248" type="curve" smooth="yes"/>
      <point x="272" y="275"/>
      <point x="313" y="315"/>
      <point x="339" y="315" type="curve" smooth="yes"/>
      <point x="351" y="315"/>
      <point x="354" y="311"/>
      <point x="354" y="306" type="curve" smooth="yes"/>
      <point x="354" y="288"/>
      <point x="340" y="260"/>
    </contour>
  </outline>
</glyph>
<glyph name="uni0789" format="2">
  <advance width="522"/>
  <unicode hex="0789"/>
  <outline>
    <contour>
      <point x="45" y="-20" type="curve" smooth="yes"/>
      <point x="61" y="-20"/>
      <point x="86" y="-17"/>
      <point x="116" y="-6" type="curve" smooth="yes"/>
      <point x="146" y="5"/>
      <point x="178" y="20"/>
      <point x="217" y="40" type="curve" smooth="yes"/>
      <point x="283" y="74"/>
      <point x="388" y="149"/>
      <point x="443" y="215" type="curve" smooth="yes"/>
      <point x="477" y="255"/>
      <point x="485" y="286"/>
      <point x="485" y="315" type="curve" smooth="yes"/>
      <point x="485" y="383"/>
      <point x="405" y="418"/>
      <point x="282" y="418" type="curve" smooth="yes"/>
      <point x="228" y="418"/>
      <point x="189" y="415"/>
      <point x="158" y="404" type="curve" smooth="yes"/>
      <point x="113" y="388"/>
      <point x="96" y="362"/>
      <point x="96" y="329" type="curve" smooth="yes"/>
      <point x="96" y="294"/>
      <point x="121" y="264"/>
      <point x="167" y="264" type="curve" smooth="yes"/>
      <point x="185" y="264"/>
      <point x="205" y="270"/>
      <point x="232" y="280" type="curve" smooth="yes"/>
      <point x="254" y="288"/>
      <point x="281" y="296"/>
      <point x="304" y="296" type="curve" smooth="yes"/>
      <point x="314" y="296"/>
      <point x="322" y="295"/>
      <point x="322" y="290" type="curve" smooth="yes"/>
      <point x="322" y="277"/>
      <point x="296" y="255"/>
      <point x="263" y="231" type="curve" smooth="yes"/>
      <point x="203" y="188"/>
      <point x="141" y="165"/>
      <point x="88" y="151" type="curve" smooth="yes"/>
      <point x="70" y="146"/>
      <point x="51" y="140"/>
      <point x="33" y="136" type="curve" smooth="yes"/>
      <point x="-21" y="123"/>
      <point x="-49" y="97"/>
      <point x="-49" y="54" type="curve" smooth="yes"/>
      <point x="-49" y="4"/>
      <point x="-18" y="-20"/>
    </contour>
  </outline>
</glyph>
<glyph name="uni078A" format="2">
  <advance width="461"/>
  <unicode hex="078A"/>
  <outline>
    <contour>
      <point x="28" y="-77" type="curve" smooth="yes"/>
      <point x="60" y="-77"/>
      <point x="101" y="-65"/>
      <point x="158" y="-29" type="curve" smooth="yes"/>
      <point x="244" y="25"/>
      <point x="371" y="113"/>
      <point x="371" y="188" type="curve" smooth="yes"/>
      <point x="371" y="214"/>
      <point x="359" y="222"/>
      <point x="350" y="231" type="curve"/>
      <point x="354" y="233"/>
      <point x="361" y="237"/>
      <point x="377" y="248" type="curve" smooth="yes"/>
      <point x="403" y="265"/>
      <point x="430" y="293"/>
      <point x="430" y="329" type="curve" smooth="yes"/>
      <point x="430" y="360"/>
      <point x="399" y="371"/>
      <point x="369" y="378" type="curve"/>
      <point x="376" y="383"/>
      <point x="381" y="386"/>
      <point x="399" y="396" type="curve" smooth="yes"/>
      <point x="422" y="409"/>
      <point x="436" y="418"/>
      <point x="436" y="436" type="curve" smooth="yes"/>
      <point x="436" y="471"/>
      <point x="405" y="497"/>
      <point x="369" y="497" type="curve" smooth="yes"/>
      <point x="333" y="497"/>
      <point x="301" y="470"/>
      <point x="272" y="451" type="curve" smooth="yes"/>
      <point x="243" y="432"/>
      <point x="190" y="412"/>
      <point x="190" y="374" type="curve" smooth="yes"/>
      <point x="190" y="347"/>
      <point x="218" y="336"/>
      <point x="239" y="328" type="curve" smooth="yes"/>
      <point x="255" y="322"/>
      <point x="277" y="317"/>
      <point x="277" y="313" type="curve" smooth="yes"/>
      <point x="277" y="305"/>
      <point x="256" y="305"/>
      <point x="219" y="289" type="curve" smooth="yes"/>
      <point x="172" y="268"/>
      <point x="158" y="254"/>
      <point x="158" y="230" type="curve" smooth="yes"/>
      <point x="158" y="215"/>
      <point x="168" y="198"/>
      <point x="181" y="190" type="curve" smooth="yes"/>
      <point x="196" y="181"/>
      <point x="217" y="176"/>
      <point x="226" y="172" type="curve"/>
      <point x="226" y="150"/>
      <point x="178" y="131"/>
      <point x="123" y="112" type="curve" smooth="yes"/>
      <point x="92" y="101"/>
      <point x="61" y="96"/>
      <point x="34" y="90" type="curve" smooth="yes"/>
      <point x="-29" y="77"/>
      <point x="-62" y="43"/>
      <point x="-62" y="4" type="curve" smooth="yes"/>
      <point x="-62" y="-45"/>
      <point x="-34" y="-77"/>
    </contour>
  </outline>
</glyph>
<glyph name="uni078C" format="2">
  <advance width="659"/>
  <unicode hex="078C"/>
  <outline>
    <contour>
      <point x="112" y="-43" type="curve" smooth="yes"/>
      <point x="220" y="-43"/>
      <point x="314" y="11"/>
      <point x="314" y="87" type="curve" smooth="yes"/>
      <point x="314" y="111"/>
      <point x="300" y="124"/>
      <point x="285" y="144" type="curve" smooth="yes"/>
      <point x="271" y="162"/>
      <point x="258" y="172"/>
      <point x="258" y="177" type="curve" smooth="yes"/>
      <point x="258" y="184"/>
      <point x="262" y="188"/>
      <point x="266" y="191" type="curve"/>
      <point x="294" y="168"/>
      <point x="348" y="138"/>
      <point x="401" y="138" type="curve" smooth="yes"/>
      <point x="498" y="138"/>
      <point x="604" y="205"/>
      <point x="604" y="308" type="curve" smooth="yes"/>
      <point x="604" y="378"/>
      <point x="550" y="418"/>
      <point x="476" y="418" type="curve" smooth="yes"/>
      <point x="365" y="418"/>
      <point x="125" y="290"/>
      <point x="125" y="168" type="curve" smooth="yes"/>
      <point x="125" y="152"/>
      <point x="133" y="141"/>
      <point x="152" y="124" type="curve" smooth="yes"/>
      <point x="161" y="116"/>
      <point x="166" y="108"/>
      <point x="166" y="102" type="curve" smooth="yes"/>
      <point x="166" y="92"/>
      <point x="154" y="86"/>
      <point x="124" y="86" type="curve" smooth="yes"/>
      <point x="110" y="86"/>
      <point x="89" y="91"/>
      <point x="78" y="93" type="curve" smooth="yes"/>
      <point x="64" y="96"/>
      <point x="47" y="99"/>
      <point x="28" y="99" type="curve" smooth="yes"/>
      <point x="-20" y="99"/>
      <point x="-36" y="73"/>
      <point x="-36" y="32" type="curve" smooth="yes"/>
      <point x="-36" y="-2"/>
      <point x="-5" y="-26"/>
      <point x="41" y="-35" type="curve" smooth="yes"/>
      <point x="68" y="-40"/>
      <point x="90" y="-43"/>
    </contour>
    <contour>
      <point x="374" y="254" type="curve" smooth="yes"/>
      <point x="363" y="254"/>
      <point x="347" y="257"/>
      <point x="332" y="263" type="curve"/>
      <point x="356" y="278"/>
      <point x="406" y="309"/>
      <point x="442" y="309" type="curve" smooth="yes"/>
      <point x="453" y="309"/>
      <point x="459" y="305"/>
      <point x="459" y="297" type="curve" smooth="yes"/>
      <point x="459" y="274"/>
      <point x="425" y="254"/>
    </contour>
  </outline>
</glyph>
<glyph name="uni078D" format="2">
  <advance width="567"/>
  <unicode hex="078D"/>
  <outline>
    <contour>
      <point x="30" y="-76" type="curve" smooth="yes"/>
      <point x="75" y="-76"/>
      <point x="103" y="-67"/>
      <point x="170" y="-28" type="curve" smooth="yes"/>
      <point x="335" y="68"/>
      <point x="502" y="263"/>
      <point x="519" y="289" type="curve" smooth="yes"/>
      <point x="528" y="303"/>
      <point x="533" y="319"/>
      <point x="533" y="334" type="curve" smooth="yes"/>
      <point x="533" y="365"/>
      <point x="514" y="385"/>
      <point x="481" y="385" type="curve" smooth="yes"/>
      <point x="470" y="385"/>
      <point x="445" y="379"/>
      <point x="424" y="373" type="curve" smooth="yes"/>
      <point x="407" y="368"/>
      <point x="374" y="362"/>
      <point x="359" y="362" type="curve"/>
      <point x="368" y="368"/>
      <point x="375" y="378"/>
      <point x="387" y="392" type="curve" smooth="yes"/>
      <point x="402" y="409"/>
      <point x="412" y="428"/>
      <point x="412" y="442" type="curve" smooth="yes"/>
      <point x="412" y="473"/>
      <point x="381" y="497"/>
      <point x="339" y="497" type="curve" smooth="yes"/>
      <point x="312" y="497"/>
      <point x="289" y="487"/>
      <point x="271" y="463" type="curve" smooth="yes"/>
      <point x="246" y="431"/>
      <point x="234" y="410"/>
      <point x="209" y="386" type="curve" smooth="yes"/>
      <point x="191" y="369"/>
      <point x="170" y="348"/>
      <point x="170" y="327" type="curve" smooth="yes"/>
      <point x="170" y="281"/>
      <point x="215" y="252"/>
      <point x="290" y="252" type="curve" smooth="yes"/>
      <point x="300" y="252"/>
      <point x="314" y="254"/>
      <point x="320" y="254" type="curve"/>
      <point x="289" y="228"/>
      <point x="281" y="223"/>
      <point x="247" y="198" type="curve" smooth="yes"/>
      <point x="127" y="112"/>
      <point x="73" y="98"/>
      <point x="8" y="82" type="curve" smooth="yes"/>
      <point x="-48" y="68"/>
      <point x="-74" y="46"/>
      <point x="-74" y="5" type="curve" smooth="yes"/>
      <point x="-74" y="-43"/>
      <point x="-42" y="-76"/>
    </contour>
  </outline>
</glyph>
<glyph name="uni078E" format="2">
  <advance width="503"/>
  <unicode hex="078E"/>
  <outline>
    <contour>
      <point x="61" y="-46" type="curve" smooth="yes"/>
      <point x="201" y="-46"/>
      <point x="371" y="11"/>
      <point x="371" y="122" type="curve" smooth="yes"/>
      <point x="371" y="145"/>
      <point x="351" y="167"/>
      <point x="334" y="186" type="curve" smooth="yes"/>
      <point x="317" y="205"/>
      <point x="309" y="215"/>
      <point x="309" y="223" type="curve" smooth="yes"/>
      <point x="309" y="233"/>
      <point x="320" y="240"/>
      <point x="335" y="248" type="curve" smooth="yes"/>
      <point x="342" y="252"/>
      <point x="376" y="268"/>
      <point x="402" y="282" type="curve" smooth="yes"/>
      <point x="451" y="308"/>
      <point x="480" y="324"/>
      <point x="480" y="357" type="curve" smooth="yes"/>
      <point x="480" y="389"/>
      <point x="459" y="424"/>
      <point x="423" y="424" type="curve" smooth="yes"/>
      <point x="398" y="424"/>
      <point x="348" y="402"/>
      <point x="328" y="392" type="curve" smooth="yes"/>
      <point x="272" y="365"/>
      <point x="251" y="351"/>
      <point x="209" y="319" type="curve" smooth="yes"/>
      <point x="174" y="292"/>
      <point x="160" y="259"/>
      <point x="160" y="232" type="curve" smooth="yes"/>
      <point x="160" y="198"/>
      <point x="176" y="177"/>
      <point x="190" y="153" type="curve" smooth="yes"/>
      <point x="198" y="139"/>
      <point x="212" y="117"/>
      <point x="212" y="111" type="curve" smooth="yes"/>
      <point x="212" y="96"/>
      <point x="160" y="87"/>
      <point x="101" y="87" type="curve" smooth="yes"/>
      <point x="70" y="87"/>
      <point x="55" y="91"/>
      <point x="37" y="96" type="curve" smooth="yes"/>
      <point x="18" y="101"/>
      <point x="2" y="104"/>
      <point x="-12" y="104" type="curve" smooth="yes"/>
      <point x="-42" y="104"/>
      <point x="-68" y="69"/>
      <point x="-68" y="26" type="curve" smooth="yes"/>
      <point x="-68" y="-9"/>
      <point x="-45" y="-28"/>
      <point x="-14" y="-37" type="curve" smooth="yes"/>
      <point x="14" y="-45"/>
      <point x="38" y="-46"/>
    </contour>
  </outline>
</glyph>
<glyph name="uni078F" format="2">
  <advance width="736"/>
  <unicode hex="078F"/>
  <outline>
    <contour>
      <point x="284" y="-152" type="curve" smooth="yes"/>
      <point x="372" y="-152"/>
      <point x="428" y="-147"/>
      <point x="458" y="-133" type="curve" smooth="yes"/>
      <point x="491" y="-118"/>
      <point x="505" y="-99"/>
      <point x="505" y="-74" type="curve" smooth="yes"/>
      <point x="505" y="-37"/>
      <point x="480" y="-16"/>
      <point x="445" y="-16" type="curve" smooth="yes"/>
      <point x="418" y="-16"/>
      <point x="399" y="-18"/>
      <point x="378" y="-19" type="curve" smooth="yes"/>
      <point x="349" y="-20"/>
      <point x="322" y="-22"/>
      <point x="293" y="-22" type="curve" smooth="yes"/>
      <point x="226" y="-22"/>
      <point x="199" y="1"/>
      <point x="199" y="34" type="curve" smooth="yes"/>
      <point x="199" y="68"/>
      <point x="217" y="129"/>
      <point x="280" y="173" type="curve"/>
      <point x="291" y="163"/>
      <point x="316" y="151"/>
      <point x="336" y="151" type="curve" smooth="yes"/>
      <point x="365" y="151"/>
      <point x="383" y="163"/>
      <point x="400" y="187" type="curve"/>
      <point x="422" y="156"/>
      <point x="435" y="143"/>
      <point x="472" y="143" type="curve" smooth="yes"/>
      <point x="533" y="143"/>
      <point x="589" y="201"/>
      <point x="666" y="270" type="curve" smooth="yes"/>
      <point x="691" y="292"/>
      <point x="707" y="322"/>
      <point x="707" y="352" type="curve" smooth="yes"/>
      <point x="707" y="386"/>
      <point x="690" y="408"/>
      <point x="644" y="408" type="curve" smooth="yes"/>
      <point x="621" y="408"/>
      <point x="606" y="404"/>
      <point x="591" y="394" type="curve" smooth="yes"/>
      <point x="570" y="379"/>
      <point x="565" y="373"/>
      <point x="550" y="349" type="curve" smooth="yes"/>
      <point x="535" y="324"/>
      <point x="513" y="282"/>
      <point x="504" y="282" type="curve" smooth="yes"/>
      <point x="494" y="282"/>
      <point x="496" y="324"/>
      <point x="493" y="347" type="curve" smooth="yes"/>
      <point x="491" y="364"/>
      <point x="481" y="389"/>
      <point x="443" y="389" type="curve" smooth="yes"/>
      <point x="428" y="389"/>
      <point x="414" y="381"/>
      <point x="398" y="359" type="curve" smooth="yes"/>
      <point x="368" y="316"/>
      <point x="360" y="304"/>
      <point x="354" y="304" type="curve" smooth="yes"/>
      <point x="348" y="304"/>
      <point x="343" y="318"/>
      <point x="332" y="343" type="curve" smooth="yes"/>
      <point x="319" y="374"/>
      <point x="300" y="396"/>
      <point x="277" y="396" type="curve" smooth="yes"/>
      <point x="206" y="396"/>
      <point x="144" y="337"/>
      <point x="144" y="288" type="curve" smooth="yes"/>
      <point x="144" y="264"/>
      <point x="154" y="257"/>
      <point x="168" y="248" type="curve" smooth="yes"/>
      <point x="179" y="241"/>
      <point x="187" y="237"/>
      <point x="196" y="233" type="curve"/>
      <point x="102" y="172"/>
      <point x="45" y="101"/>
      <point x="45" y="11" type="curve" smooth="yes"/>
      <point x="45" y="-98"/>
      <point x="133" y="-152"/>
    </contour>
  </outline>
</glyph>
<glyph name="uni0791" format="2">
  <advance width="407"/>
  <unicode hex="0791"/>
  <outline>
    <contour>
      <point x="248" y="-43" type="curve" smooth="yes"/>
      <point x="305" y="-43"/>
      <point x="345" y="-21"/>
      <point x="345" y="27" type="curve" smooth="yes"/>
      <point x="345" y="69"/>
      <point x="326" y="90"/>
      <point x="299" y="90" type="curve" smooth="yes"/>
      <point x="267" y="90"/>
      <point x="243" y="87"/>
      <point x="219" y="87" type="curve" smooth="yes"/>
      <point x="192" y="87"/>
      <point x="168" y="94"/>
      <point x="168" y="105" type="curve" smooth="yes"/>
      <point x="168" y="113"/>
      <point x="179" y="127"/>
      <point x="221" y="150" type="curve" smooth="yes"/>
      <point x="251" y="167"/>
      <point x="289" y="178"/>
      <point x="289" y="222" type="curve" smooth="yes"/>
      <point x="289" y="245"/>
      <point x="278" y="258"/>
      <point x="252" y="269" type="curve" smooth="yes"/>
      <point x="225" y="280"/>
      <point x="202" y="284"/>
      <point x="190" y="289" type="curve"/>
      <point x="200" y="294"/>
      <point x="213" y="299"/>
      <point x="236" y="315" type="curve" smooth="yes"/>
      <point x="253" y="327"/>
      <point x="260" y="338"/>
      <point x="260" y="356" type="curve" smooth="yes"/>
      <point x="260" y="383"/>
      <point x="239" y="409"/>
      <point x="209" y="409" type="curve" smooth="yes"/>
      <point x="189" y="409"/>
      <point x="172" y="401"/>
      <point x="155" y="390" type="curve" smooth="yes"/>
      <point x="125" y="370"/>
      <point x="98" y="349"/>
      <point x="77" y="329" type="curve" smooth="yes"/>
      <point x="51" y="305"/>
      <point x="34" y="289"/>
      <point x="34" y="260" type="curve" smooth="yes"/>
      <point x="34" y="233"/>
      <point x="51" y="217"/>
      <point x="91" y="207" type="curve" smooth="yes"/>
      <point x="103" y="204"/>
      <point x="110" y="203"/>
      <point x="113" y="203" type="curve"/>
      <point x="63" y="179"/>
      <point x="19" y="142"/>
      <point x="19" y="90" type="curve" smooth="yes"/>
      <point x="19" y="14"/>
      <point x="161" y="-43"/>
    </contour>
  </outline>
</glyph>
<glyph name="uni0792" format="2">
  <advance width="578"/>
  <unicode hex="0792"/>
  <outline>
    <contour>
      <point x="281" y="-158" type="curve" smooth="yes"/>
      <point x="328" y="-158"/>
      <point x="375" y="-155"/>
      <point x="408" y="-143" type="curve" smooth="yes"/>
      <point x="442" y="-131"/>
      <point x="454" y="-112"/>
      <point x="454" y="-85" type="curve" smooth="yes"/>
      <point x="454" y="-44"/>
      <point x="435" y="-20"/>
      <point x="404" y="-20" type="curve" smooth="yes"/>
      <point x="378" y="-20"/>
      <point x="363" y="-22"/>
      <point x="342" y="-24" type="curve" smooth="yes"/>
      <point x="321" y="-26"/>
      <point x="306" y="-27"/>
      <point x="290" y="-27" type="curve" smooth="yes"/>
      <point x="219" y="-27"/>
      <point x="197" y="-9"/>
      <point x="197" y="9" type="curve" smooth="yes"/>
      <point x="197" y="28"/>
      <point x="214" y="54"/>
      <point x="269" y="104" type="curve"/>
      <point x="296" y="91"/>
      <point x="327" y="81"/>
      <point x="357" y="74" type="curve" smooth="yes"/>
      <point x="373" y="70"/>
      <point x="391" y="69"/>
      <point x="408" y="69" type="curve" smooth="yes"/>
      <point x="462" y="69"/>
      <point x="482" y="99"/>
      <point x="482" y="135" type="curve" smooth="yes"/>
      <point x="482" y="165"/>
      <point x="470" y="175"/>
      <point x="443" y="179" type="curve" smooth="yes"/>
      <point x="424" y="182"/>
      <point x="411" y="184"/>
      <point x="404" y="186" type="curve"/>
      <point x="445" y="213"/>
      <point x="490" y="235"/>
      <point x="523" y="254" type="curve" smooth="yes"/>
      <point x="544" y="266"/>
      <point x="555" y="286"/>
      <point x="555" y="314" type="curve" smooth="yes"/>
      <point x="555" y="358"/>
      <point x="523" y="380"/>
      <point x="492" y="380" type="curve" smooth="yes"/>
      <point x="477" y="380"/>
      <point x="450" y="370"/>
      <point x="418" y="353" type="curve" smooth="yes"/>
      <point x="383" y="335"/>
      <point x="339" y="304"/>
      <point x="296" y="267" type="curve"/>
      <point x="284" y="280"/>
      <point x="273" y="295"/>
      <point x="263" y="304" type="curve" smooth="yes"/>
      <point x="253" y="313"/>
      <point x="244" y="322"/>
      <point x="220" y="322" type="curve" smooth="yes"/>
      <point x="181" y="322"/>
      <point x="145" y="281"/>
      <point x="145" y="246" type="curve" smooth="yes"/>
      <point x="145" y="215"/>
      <point x="159" y="201"/>
      <point x="172" y="183" type="curve"/>
      <point x="97" y="124"/>
      <point x="46" y="73"/>
      <point x="46" y="-9" type="curve" smooth="yes"/>
      <point x="46" y="-103"/>
      <point x="124" y="-158"/>
    </contour>
  </outline>
</glyph>
<glyph name="uni0793" format="2">
  <advance width="686"/>
  <unicode hex="0793"/>
  <outline>
    <contour>
      <point x="307" y="-152" type="curve" smooth="yes"/>
      <point x="373" y="-152"/>
      <point x="425" y="-148"/>
      <point x="458" y="-138" type="curve" smooth="yes"/>
      <point x="513" y="-122"/>
      <point x="539" y="-97"/>
      <point x="539" y="-63" type="curve" smooth="yes"/>
      <point x="539" y="-24"/>
      <point x="517" y="-7"/>
      <point x="489" y="-7" type="curve" smooth="yes"/>
      <point x="466" y="-7"/>
      <point x="437" y="-12"/>
      <point x="417" y="-15" type="curve" smooth="yes"/>
      <point x="400" y="-18"/>
      <point x="357" y="-22"/>
      <point x="313" y="-22" type="curve" smooth="yes"/>
      <point x="232" y="-22"/>
      <point x="194" y="-7"/>
      <point x="194" y="30" type="curve" smooth="yes"/>
      <point x="194" y="55"/>
      <point x="219" y="75"/>
      <point x="253" y="98" type="curve"/>
      <point x="284" y="93"/>
      <point x="313" y="89"/>
      <point x="354" y="89" type="curve" smooth="yes"/>
      <point x="485" y="89"/>
      <point x="659" y="160"/>
      <point x="659" y="285" type="curve" smooth="yes"/>
      <point x="659" y="355"/>
      <point x="610" y="402"/>
      <point x="527" y="402" type="curve" smooth="yes"/>
      <point x="474" y="402"/>
      <point x="428" y="380"/>
      <point x="373" y="340" type="curve"/>
      <point x="342" y="366"/>
      <point x="297" y="383"/>
      <point x="251" y="383" type="curve" smooth="yes"/>
      <point x="142" y="383"/>
      <point x="70" y="310"/>
      <point x="70" y="240" type="curve" smooth="yes"/>
      <point x="70" y="192"/>
      <point x="98" y="159"/>
      <point x="120" y="144" type="curve"/>
      <point x="78" y="113"/>
      <point x="41" y="80"/>
      <point x="41" y="13" type="curve" smooth="yes"/>
      <point x="41" y="-95"/>
      <point x="134" y="-152"/>
    </contour>
    <contour>
      <point x="222" y="211" type="curve"/>
      <point x="215" y="214"/>
      <point x="204" y="227"/>
      <point x="204" y="241" type="curve" smooth="yes"/>
      <point x="204" y="258"/>
      <point x="220" y="271"/>
      <point x="238" y="271" type="curve" smooth="yes"/>
      <point x="257" y="271"/>
      <point x="270" y="262"/>
      <point x="277" y="252" type="curve"/>
      <point x="251" y="234"/>
      <point x="240" y="225"/>
    </contour>
    <contour>
      <point x="355" y="195" type="curve"/>
      <point x="406" y="237"/>
      <point x="470" y="283"/>
      <point x="495" y="283" type="curve" smooth="yes"/>
      <point x="506" y="283"/>
      <point x="513" y="278"/>
      <point x="513" y="265" type="curve" smooth="yes"/>
      <point x="513" y="225"/>
      <point x="429" y="201"/>
    </contour>
  </outline>
</glyph>
<glyph name="uni0794" format="2">
  <advance width="751"/>
  <unicode hex="0794"/>
  <outline>
    <contour>
      <point x="31" y="-78" type="curve" smooth="yes"/>
      <point x="53" y="-78"/>
      <point x="76" y="-78"/>
      <point x="132" y="-53" type="curve" smooth="yes"/>
      <point x="243" y="-4"/>
      <point x="354" y="115"/>
      <point x="435" y="211" type="curve"/>
      <point x="465" y="218"/>
      <point x="499" y="224"/>
      <point x="539" y="241" type="curve"/>
      <point x="511" y="172"/>
      <point x="469" y="142"/>
      <point x="455" y="130" type="curve" smooth="yes"/>
      <point x="438" y="115"/>
      <point x="430" y="97"/>
      <point x="430" y="72" type="curve" smooth="yes"/>
      <point x="430" y="37"/>
      <point x="459" y="14"/>
      <point x="504" y="14" type="curve" smooth="yes"/>
      <point x="539" y="14"/>
      <point x="574" y="37"/>
      <point x="601" y="74" type="curve" smooth="yes"/>
      <point x="659" y="154"/>
      <point x="689" y="230"/>
      <point x="689" y="308" type="curve" smooth="yes"/>
      <point x="689" y="399"/>
      <point x="666" y="424"/>
      <point x="632" y="424" type="curve" smooth="yes"/>
      <point x="616" y="424"/>
      <point x="596" y="417"/>
      <point x="571" y="403" type="curve" smooth="yes"/>
      <point x="525" y="377"/>
      <point x="501" y="364"/>
      <point x="472" y="357" type="curve"/>
      <point x="448" y="396"/>
      <point x="421" y="423"/>
      <point x="367" y="423" type="curve" smooth="yes"/>
      <point x="286" y="423"/>
      <point x="240" y="367"/>
      <point x="240" y="307" type="curve" smooth="yes"/>
      <point x="240" y="275"/>
      <point x="252" y="247"/>
      <point x="285" y="228" type="curve"/>
      <point x="216" y="163"/>
      <point x="154" y="123"/>
      <point x="104" y="108" type="curve" smooth="yes"/>
      <point x="64" y="96"/>
      <point x="41" y="90"/>
      <point x="10" y="83" type="curve" smooth="yes"/>
      <point x="-37" y="73"/>
      <point x="-63" y="44"/>
      <point x="-63" y="3" type="curve" smooth="yes"/>
      <point x="-63" y="-46"/>
      <point x="-31" y="-78"/>
    </contour>
  </outline>
</glyph>
<glyph name="uni0796" format="2">
  <advance width="597"/>
  <unicode hex="0796"/>
  <outline>
    <contour>
      <point x="289" y="-159" type="curve" smooth="yes"/>
      <point x="360" y="-159"/>
      <point x="415" y="-154"/>
      <point x="452" y="-142" type="curve" smooth="yes"/>
      <point x="500" y="-126"/>
      <point x="524" y="-101"/>
      <point x="524" y="-70" type="curve" smooth="yes"/>
      <point x="524" y="-31"/>
      <point x="490" y="-13"/>
      <point x="465" y="-13" type="curve" smooth="yes"/>
      <point x="444" y="-13"/>
      <point x="420" y="-19"/>
      <point x="406" y="-21" type="curve" smooth="yes"/>
      <point x="385" y="-24"/>
      <point x="350" y="-29"/>
      <point x="287" y="-29" type="curve" smooth="yes"/>
      <point x="214" y="-29"/>
      <point x="182" y="-15"/>
      <point x="182" y="34" type="curve" smooth="yes"/>
      <point x="182" y="53"/>
      <point x="191" y="66"/>
      <point x="200" y="74" type="curve"/>
      <point x="215" y="71"/>
      <point x="240" y="69"/>
      <point x="267" y="69" type="curve" smooth="yes"/>
      <point x="403" y="69"/>
      <point x="511" y="145"/>
      <point x="511" y="252" type="curve" smooth="yes"/>
      <point x="511" y="277"/>
      <point x="498" y="312"/>
      <point x="474" y="322" type="curve"/>
      <point x="522" y="332"/>
      <point x="539" y="354"/>
      <point x="539" y="380" type="curve" smooth="yes"/>
      <point x="539" y="414"/>
      <point x="516" y="440"/>
      <point x="484" y="440" type="curve" smooth="yes"/>
      <point x="454" y="440"/>
      <point x="441" y="431"/>
      <point x="388" y="405" type="curve" smooth="yes"/>
      <point x="349" y="386"/>
      <point x="291" y="386"/>
      <point x="291" y="330" type="curve" smooth="yes"/>
      <point x="291" y="299"/>
      <point x="303" y="290"/>
      <point x="333" y="278" type="curve" smooth="yes"/>
      <point x="349" y="272"/>
      <point x="357" y="263"/>
      <point x="357" y="250" type="curve" smooth="yes"/>
      <point x="357" y="215"/>
      <point x="324" y="205"/>
      <point x="301" y="205" type="curve" smooth="yes"/>
      <point x="288" y="205"/>
      <point x="263" y="207"/>
      <point x="251" y="209" type="curve"/>
      <point x="240" y="247"/>
      <point x="219" y="279"/>
      <point x="169" y="279" type="curve" smooth="yes"/>
      <point x="126" y="279"/>
      <point x="76" y="245"/>
      <point x="76" y="187" type="curve" smooth="yes"/>
      <point x="76" y="168"/>
      <point x="83" y="147"/>
      <point x="101" y="130" type="curve"/>
      <point x="61" y="101"/>
      <point x="31" y="53"/>
      <point x="31" y="5" type="curve" smooth="yes"/>
      <point x="31" y="-103"/>
      <point x="124" y="-159"/>
    </contour>
  </outline>
</glyph>
<glyph name="uni0797" format="2">
  <advance width="640"/>
  <unicode hex="0797"/>
  <outline>
    <contour>
      <point x="21" y="-157" type="curve" smooth="yes"/>
      <point x="63" y="-157"/>
      <point x="82" y="-147"/>
      <point x="120" y="-124" type="curve" smooth="yes"/>
      <point x="217" y="-64"/>
      <point x="242" y="-19"/>
      <point x="242" y="31" type="curve" smooth="yes"/>
      <point x="242" y="48"/>
      <point x="231" y="70"/>
      <point x="214" y="90" type="curve" smooth="yes"/>
      <point x="205" y="101"/>
      <point x="200" y="107"/>
      <point x="198" y="109" type="curve"/>
      <point x="202" y="113"/>
      <point x="206" y="116"/>
      <point x="210" y="118" type="curve"/>
      <point x="239" y="79"/>
      <point x="287" y="60"/>
      <point x="353" y="60" type="curve" smooth="yes"/>
      <point x="443" y="60"/>
      <point x="543" y="148"/>
      <point x="543" y="235" type="curve" smooth="yes"/>
      <point x="543" y="283"/>
      <point x="527" y="310"/>
      <point x="500" y="336" type="curve"/>
      <point x="525" y="349"/>
      <point x="604" y="401"/>
      <point x="647" y="433" type="curve" smooth="yes"/>
      <point x="674" y="453"/>
      <point x="685" y="472"/>
      <point x="685" y="491" type="curve" smooth="yes"/>
      <point x="685" y="519"/>
      <point x="669" y="541"/>
      <point x="638" y="541" type="curve" smooth="yes"/>
      <point x="614" y="541"/>
      <point x="601" y="536"/>
      <point x="587" y="530" type="curve" smooth="yes"/>
      <point x="533" y="507"/>
      <point x="478" y="475"/>
      <point x="305" y="349" type="curve" smooth="yes"/>
      <point x="96" y="197"/>
      <point x="49" y="132"/>
      <point x="49" y="96" type="curve" smooth="yes"/>
      <point x="49" y="83"/>
      <point x="63" y="68"/>
      <point x="77" y="50" type="curve" smooth="yes"/>
      <point x="85" y="40"/>
      <point x="89" y="33"/>
      <point x="89" y="27" type="curve" smooth="yes"/>
      <point x="89" y="15"/>
      <point x="58" y="11"/>
      <point x="20" y="1" type="curve" smooth="yes"/>
      <point x="-30" y="-12"/>
      <point x="-55" y="-41"/>
      <point x="-55" y="-82" type="curve" smooth="yes"/>
      <point x="-55" y="-129"/>
      <point x="-22" y="-157"/>
    </contour>
    <contour>
      <point x="340" y="182" type="curve" smooth="yes"/>
      <point x="316" y="182"/>
      <point x="306" y="192"/>
      <point x="302" y="216" type="curve"/>
      <point x="335" y="243"/>
      <point x="354" y="253"/>
      <point x="368" y="253" type="curve" smooth="yes"/>
      <point x="380" y="253"/>
      <point x="390" y="243"/>
      <point x="390" y="228" type="curve" smooth="yes"/>
      <point x="390" y="203"/>
      <point x="368" y="182"/>
    </contour>
  </outline>
</glyph>
<glyph name="uni0798" format="2">
  <advance width="668"/>
  <unicode hex="0798"/>
  <outline>
    <contour>
      <point x="112" y="-43" type="curve" smooth="yes"/>
      <point x="220" y="-43"/>
      <point x="314" y="11"/>
      <point x="314" y="87" type="curve" smooth="yes"/>
      <point x="314" y="111"/>
      <point x="301" y="125"/>
      <point x="285" y="144" type="curve" smooth="yes"/>
      <point x="270" y="161"/>
      <point x="258" y="175"/>
      <point x="258" y="177" type="curve" smooth="yes"/>
      <point x="258" y="184"/>
      <point x="262" y="188"/>
      <point x="266" y="191" type="curve"/>
      <point x="294" y="168"/>
      <point x="348" y="138"/>
      <point x="401" y="138" type="curve" smooth="yes"/>
      <point x="498" y="138"/>
      <point x="604" y="205"/>
      <point x="604" y="308" type="curve" smooth="yes"/>
      <point x="604" y="378"/>
      <point x="550" y="418"/>
      <point x="476" y="418" type="curve" smooth="yes"/>
      <point x="365" y="418"/>
      <point x="125" y="290"/>
      <point x="125" y="168" type="curve" smooth="yes"/>
      <point x="125" y="152"/>
      <point x="133" y="141"/>
      <point x="152" y="124" type="curve" smooth="yes"/>
      <point x="161" y="116"/>
      <point x="166" y="108"/>
      <point x="166" y="102" type="curve" smooth="yes"/>
      <point x="166" y="92"/>
      <point x="154" y="86"/>
      <point x="124" y="86" type="curve" smooth="yes"/>
      <point x="110" y="86"/>
      <point x="89" y="91"/>
      <point x="78" y="93" type="curve" smooth="yes"/>
      <point x="64" y="96"/>
      <point x="47" y="99"/>
      <point x="28" y="99" type="curve" smooth="yes"/>
      <point x="-20" y="99"/>
      <point x="-36" y="73"/>
      <point x="-36" y="32" type="curve" smooth="yes"/>
      <point x="-36" y="-2"/>
      <point x="-5" y="-26"/>
      <point x="41" y="-35" type="curve" smooth="yes"/>
      <point x="68" y="-40"/>
      <point x="90" y="-43"/>
    </contour>
    <contour>
      <point x="374" y="254" type="curve" smooth="yes"/>
      <point x="363" y="254"/>
      <point x="347" y="257"/>
      <point x="332" y="263" type="curve"/>
      <point x="353" y="276"/>
      <point x="406" y="309"/>
      <point x="442" y="309" type="curve" smooth="yes"/>
      <point x="453" y="309"/>
      <point x="459" y="305"/>
      <point x="459" y="297" type="curve" smooth="yes"/>
      <point x="459" y="274"/>
      <point x="425" y="254"/>
    </contour>
    <contour>
      <point x="448" y="608" type="curve" smooth="yes"/>
      <point x="489" y="605"/>
      <point x="532" y="636"/>
      <point x="534" y="682" type="curve" smooth="yes"/>
      <point x="536" y="727"/>
      <point x="510" y="755"/>
      <point x="471" y="758" type="curve" smooth="yes"/>
      <point x="429" y="761"/>
      <point x="391" y="729"/>
      <point x="387" y="683" type="curve" smooth="yes"/>
      <point x="383" y="642"/>
      <point x="410" y="611"/>
    </contour>
    <contour>
      <point x="333" y="456" type="curve" smooth="yes"/>
      <point x="372" y="453"/>
      <point x="415" y="484"/>
      <point x="417" y="530" type="curve" smooth="yes"/>
      <point x="419" y="575"/>
      <point x="395" y="604"/>
      <point x="354" y="606" type="curve" smooth="yes"/>
      <point x="315" y="608"/>
      <point x="274" y="577"/>
      <point x="270" y="531" type="curve" smooth="yes"/>
      <point x="267" y="491"/>
      <point x="293" y="459"/>
    </contour>
    <contour>
      <point x="540" y="456" type="curve" smooth="yes"/>
      <point x="581" y="453"/>
      <point x="624" y="484"/>
      <point x="626" y="530" type="curve" smooth="yes"/>
      <point x="628" y="575"/>
      <point x="602" y="603"/>
      <point x="563" y="606" type="curve" smooth="yes"/>
      <point x="521" y="609"/>
      <point x="483" y="577"/>
      <point x="479" y="531" type="curve" smooth="yes"/>
      <point x="475" y="490"/>
      <point x="500" y="459"/>
    </contour>
  </outline>
</glyph>
<glyph name="uni0799" format="2">
  <advance width="547"/>
  <unicode hex="0799"/>
  <outline>
    <contour>
      <point x="93" y="-11" type="curve" smooth="yes"/>
      <point x="196" y="-11"/>
      <point x="284" y="67"/>
      <point x="407" y="178" type="curve" smooth="yes"/>
      <point x="478" y="242"/>
      <point x="495" y="262"/>
      <point x="509" y="286" type="curve" smooth="yes"/>
      <point x="521" y="306"/>
      <point x="525" y="323"/>
      <point x="525" y="336" type="curve" smooth="yes"/>
      <point x="525" y="368"/>
      <point x="506" y="390"/>
      <point x="467" y="390" type="curve" smooth="yes"/>
      <point x="441" y="390"/>
      <point x="420" y="378"/>
      <point x="392" y="355" type="curve" smooth="yes"/>
      <point x="361" y="330"/>
      <point x="307" y="283"/>
      <point x="263" y="249" type="curve" smooth="yes"/>
      <point x="217" y="214"/>
      <point x="151" y="165"/>
      <point x="87" y="148" type="curve" smooth="yes"/>
      <point x="37" y="135"/>
      <point x="12" y="106"/>
      <point x="12" y="62" type="curve" smooth="yes"/>
      <point x="12" y="16"/>
      <point x="44" y="-11"/>
    </contour>
    <contour>
      <point x="420" y="-49" type="curve" smooth="yes"/>
      <point x="462" y="-49"/>
      <point x="503" y="-16"/>
      <point x="503" y="34" type="curve" smooth="yes"/>
      <point x="503" y="76"/>
      <point x="471" y="109"/>
      <point x="428" y="109" type="curve" smooth="yes"/>
      <point x="386" y="109"/>
      <point x="347" y="73"/>
      <point x="347" y="25" type="curve" smooth="yes"/>
      <point x="347" y="-18"/>
      <point x="378" y="-49"/>
    </contour>
  </outline>
</glyph>
<glyph name="uni079A" format="2">
  <advance width="547"/>
  <unicode hex="079A"/>
  <outline>
    <contour>
      <point x="93" y="-11" type="curve" smooth="yes"/>
      <point x="196" y="-11"/>
      <point x="284" y="67"/>
      <point x="407" y="178" type="curve" smooth="yes"/>
      <point x="478" y="242"/>
      <point x="495" y="262"/>
      <point x="509" y="286" type="curve" smooth="yes"/>
      <point x="521" y="306"/>
      <point x="525" y="323"/>
      <point x="525" y="336" type="curve" smooth="yes"/>
      <point x="525" y="368"/>
      <point x="506" y="390"/>
      <point x="467" y="390" type="curve" smooth="yes"/>
      <point x="441" y="390"/>
      <point x="420" y="378"/>
      <point x="392" y="355" type="curve" smooth="yes"/>
      <point x="361" y="330"/>
      <point x="307" y="283"/>
      <point x="263" y="249" type="curve" smooth="yes"/>
      <point x="217" y="214"/>
      <point x="151" y="165"/>
      <point x="87" y="148" type="curve" smooth="yes"/>
      <point x="37" y="135"/>
      <point x="12" y="106"/>
      <point x="12" y="62" type="curve" smooth="yes"/>
      <point x="12" y="16"/>
      <point x="44" y="-11"/>
    </contour>
    <contour>
      <point x="407" y="429" type="curve" smooth="yes"/>
      <point x="449" y="429"/>
      <point x="490" y="463"/>
      <point x="490" y="510" type="curve" smooth="yes"/>
      <point x="490" y="553"/>
      <point x="458" y="588"/>
      <point x="416" y="588" type="curve" smooth="yes"/>
      <point x="373" y="588"/>
      <point x="335" y="552"/>
      <point x="335" y="503" type="curve" smooth="yes"/>
      <point x="335" y="460"/>
      <point x="365" y="429"/>
    </contour>
  </outline>
</glyph>
<glyph name="uni079B" format="2">
  <advance width="633"/>
  <unicode hex="079B"/>
  <outline>
    <contour>
      <point x="24" y="-77" type="curve" smooth="yes"/>
      <point x="54" y="-77"/>
      <point x="75" y="-73"/>
      <point x="134" y="-32" type="curve" smooth="yes"/>
      <point x="193" y="9"/>
      <point x="237" y="46"/>
      <point x="307" y="123" type="curve"/>
      <point x="324" y="121"/>
      <point x="341" y="121"/>
      <point x="347" y="121" type="curve" smooth="yes"/>
      <point x="493" y="121"/>
      <point x="591" y="198"/>
      <point x="591" y="305" type="curve" smooth="yes"/>
      <point x="591" y="333"/>
      <point x="572" y="370"/>
      <point x="555" y="381" type="curve"/>
      <point x="567" y="386"/>
      <point x="607" y="403"/>
      <point x="607" y="440" type="curve" smooth="yes"/>
      <point x="607" y="473"/>
      <point x="577" y="498"/>
      <point x="544" y="498" type="curve" smooth="yes"/>
      <point x="520" y="498"/>
      <point x="503" y="484"/>
      <point x="468" y="472" type="curve" smooth="yes"/>
      <point x="428" y="458"/>
      <point x="364" y="447"/>
      <point x="364" y="391" type="curve" smooth="yes"/>
      <point x="364" y="367"/>
      <point x="384" y="345"/>
      <point x="414" y="335" type="curve" smooth="yes"/>
      <point x="432" y="329"/>
      <point x="438" y="319"/>
      <point x="438" y="304" type="curve" smooth="yes"/>
      <point x="438" y="277"/>
      <point x="419" y="257"/>
      <point x="380" y="257" type="curve" smooth="yes"/>
      <point x="368" y="257"/>
      <point x="356" y="258"/>
      <point x="344" y="261" type="curve"/>
      <point x="332" y="300"/>
      <point x="302" y="325"/>
      <point x="259" y="325" type="curve" smooth="yes"/>
      <point x="208" y="325"/>
      <point x="164" y="292"/>
      <point x="164" y="229" type="curve" smooth="yes"/>
      <point x="164" y="211"/>
      <point x="170" y="195"/>
      <point x="182" y="179" type="curve"/>
      <point x="141" y="146"/>
      <point x="114" y="125"/>
      <point x="87" y="112" type="curve" smooth="yes"/>
      <point x="67" y="102"/>
      <point x="49" y="93"/>
      <point x="17" y="82" type="curve" smooth="yes"/>
      <point x="-33" y="65"/>
      <point x="-60" y="42"/>
      <point x="-60" y="3" type="curve" smooth="yes"/>
      <point x="-60" y="-49"/>
      <point x="-29" y="-77"/>
    </contour>
    <contour>
      <point x="487" y="549" type="curve" smooth="yes"/>
      <point x="529" y="549"/>
      <point x="570" y="583"/>
      <point x="570" y="630" type="curve" smooth="yes"/>
      <point x="570" y="673"/>
      <point x="538" y="708"/>
      <point x="496" y="708" type="curve" smooth="yes"/>
      <point x="453" y="708"/>
      <point x="415" y="672"/>
      <point x="415" y="623" type="curve" smooth="yes"/>
      <point x="415" y="580"/>
      <point x="445" y="549"/>
    </contour>
  </outline>
</glyph>
<glyph name="uni079D" format="2">
  <advance width="1019"/>
  <unicode hex="079D"/>
  <outline>
    <contour>
      <point x="111" y="33" type="curve" smooth="yes"/>
      <point x="146" y="33"/>
      <point x="176" y="48"/>
      <point x="222" y="91" type="curve"/>
      <point x="254" y="128"/>
      <point x="261" y="145"/>
      <point x="273" y="169" type="curve"/>
      <point x="428" y="154"/>
      <point x="471" y="151"/>
      <point x="568" y="151" type="curve" smooth="yes"/>
      <point x="675" y="151"/>
      <point x="806" y="151"/>
      <point x="908" y="225" type="curve" smooth="yes"/>
      <point x="938" y="247"/>
      <point x="963" y="277"/>
      <point x="979" y="305" type="curve" smooth="yes"/>
      <point x="991" y="326"/>
      <point x="997" y="348"/>
      <point x="997" y="370" type="curve" smooth="yes"/>
      <point x="997" y="407"/>
      <point x="981" y="432"/>
      <point x="936" y="432" type="curve" smooth="yes"/>
      <point x="901" y="432"/>
      <point x="880" y="412"/>
      <point x="861" y="380" type="curve" smooth="yes"/>
      <point x="852" y="364"/>
      <point x="835" y="334"/>
      <point x="809" y="317" type="curve" smooth="yes"/>
      <point x="777" y="296"/>
      <point x="721" y="284"/>
      <point x="543" y="284" type="curve" smooth="yes"/>
      <point x="447" y="284"/>
      <point x="367" y="285"/>
      <point x="296" y="294" type="curve"/>
      <point x="298" y="348"/>
      <point x="263" y="409"/>
      <point x="193" y="409" type="curve" smooth="yes"/>
      <point x="129" y="409"/>
      <point x="80" y="350"/>
      <point x="80" y="301" type="curve" smooth="yes"/>
      <point x="80" y="265"/>
      <point x="87" y="239"/>
      <point x="147" y="205" type="curve"/>
      <point x="138" y="186"/>
      <point x="102" y="164"/>
      <point x="85" y="158" type="curve" smooth="yes"/>
      <point x="49" y="145"/>
      <point x="30" y="125"/>
      <point x="30" y="98" type="curve" smooth="yes"/>
      <point x="30" y="59"/>
      <point x="62" y="33"/>
    </contour>
    <contour>
      <point x="566" y="497" type="curve" smooth="yes"/>
      <point x="607" y="494"/>
      <point x="650" y="525"/>
      <point x="652" y="571" type="curve" smooth="yes"/>
      <point x="654" y="616"/>
      <point x="628" y="644"/>
      <point x="589" y="647" type="curve" smooth="yes"/>
      <point x="547" y="650"/>
      <point x="509" y="618"/>
      <point x="505" y="572" type="curve" smooth="yes"/>
      <point x="501" y="531"/>
      <point x="528" y="500"/>
    </contour>
    <contour>
      <point x="451" y="345" type="curve" smooth="yes"/>
      <point x="490" y="342"/>
      <point x="533" y="373"/>
      <point x="535" y="419" type="curve" smooth="yes"/>
      <point x="537" y="464"/>
      <point x="513" y="493"/>
      <point x="472" y="495" type="curve" smooth="yes"/>
      <point x="433" y="497"/>
      <point x="392" y="466"/>
      <point x="388" y="420" type="curve" smooth="yes"/>
      <point x="385" y="380"/>
      <point x="411" y="348"/>
    </contour>
    <contour>
      <point x="658" y="345" type="curve" smooth="yes"/>
      <point x="699" y="342"/>
      <point x="742" y="373"/>
      <point x="744" y="419" type="curve" smooth="yes"/>
      <point x="746" y="464"/>
      <point x="720" y="492"/>
      <point x="681" y="495" type="curve" smooth="yes"/>
      <point x="639" y="498"/>
      <point x="601" y="466"/>
      <point x="597" y="420" type="curve" smooth="yes"/>
      <point x="593" y="379"/>
      <point x="618" y="348"/>
    </contour>
  </outline>
</glyph>
<glyph name="uni079E" format="2">
  <advance width="1019"/>
  <unicode hex="079E"/>
  <outline>
    <contour>
      <point x="111" y="33" type="curve" smooth="yes"/>
      <point x="146" y="33"/>
      <point x="176" y="48"/>
      <point x="222" y="91" type="curve"/>
      <point x="254" y="128"/>
      <point x="261" y="145"/>
      <point x="273" y="169" type="curve"/>
      <point x="428" y="154"/>
      <point x="471" y="151"/>
      <point x="568" y="151" type="curve" smooth="yes"/>
      <point x="675" y="151"/>
      <point x="806" y="151"/>
      <point x="908" y="225" type="curve" smooth="yes"/>
      <point x="938" y="247"/>
      <point x="963" y="277"/>
      <point x="979" y="305" type="curve" smooth="yes"/>
      <point x="991" y="326"/>
      <point x="997" y="348"/>
      <point x="997" y="370" type="curve" smooth="yes"/>
      <point x="997" y="407"/>
      <point x="981" y="432"/>
      <point x="936" y="432" type="curve" smooth="yes"/>
      <point x="901" y="432"/>
      <point x="880" y="412"/>
      <point x="861" y="380" type="curve" smooth="yes"/>
      <point x="852" y="364"/>
      <point x="835" y="334"/>
      <point x="809" y="317" type="curve" smooth="yes"/>
      <point x="777" y="296"/>
      <point x="721" y="284"/>
      <point x="543" y="284" type="curve" smooth="yes"/>
      <point x="447" y="284"/>
      <point x="367" y="285"/>
      <point x="296" y="294" type="curve"/>
      <point x="298" y="348"/>
      <point x="263" y="409"/>
      <point x="193" y="409" type="curve" smooth="yes"/>
      <point x="129" y="409"/>
      <point x="80" y="350"/>
      <point x="80" y="301" type="curve" smooth="yes"/>
      <point x="80" y="265"/>
      <point x="87" y="239"/>
      <point x="147" y="205" type="curve"/>
      <point x="138" y="186"/>
      <point x="102" y="164"/>
      <point x="85" y="158" type="curve" smooth="yes"/>
      <point x="49" y="145"/>
      <point x="30" y="125"/>
      <point x="30" y="98" type="curve" smooth="yes"/>
      <point x="30" y="59"/>
      <point x="62" y="33"/>
    </contour>
    <contour>
      <point x="530" y="-57" type="curve" smooth="yes"/>
      <point x="571" y="-57"/>
      <point x="613" y="-24"/>
      <point x="613" y="26" type="curve" smooth="yes"/>
      <point x="613" y="68"/>
      <point x="581" y="101"/>
      <point x="538" y="101" type="curve" smooth="yes"/>
      <point x="496" y="101"/>
      <point x="457" y="65"/>
      <point x="457" y="17" type="curve" smooth="yes"/>
      <point x="457" y="-26"/>
      <point x="488" y="-57"/>
    </contour>
  </outline>
</glyph>
<glyph name="uni07A2" format="2">
  <advance width="546"/>
  <unicode hex="07A2"/>
  <outline>
    <contour>
      <point x="8" y="-11" type="curve" smooth="yes"/>
      <point x="64" y="-11"/>
      <point x="106" y="21"/>
      <point x="169" y="66" type="curve" smooth="yes"/>
      <point x="221" y="103"/>
      <point x="319" y="193"/>
      <point x="359" y="234" type="curve"/>
      <point x="347" y="193"/>
      <point x="327" y="160"/>
      <point x="309" y="132" type="curve" smooth="yes"/>
      <point x="294" y="108"/>
      <point x="282" y="86"/>
      <point x="282" y="55" type="curve" smooth="yes"/>
      <point x="282" y="21"/>
      <point x="312" y="-1"/>
      <point x="352" y="-1" type="curve" smooth="yes"/>
      <point x="384" y="-1"/>
      <point x="408" y="21"/>
      <point x="443" y="80" type="curve" smooth="yes"/>
      <point x="479" y="140"/>
      <point x="497" y="213"/>
      <point x="497" y="272" type="curve" smooth="yes"/>
      <point x="497" y="347"/>
      <point x="461" y="387"/>
      <point x="399" y="387" type="curve" smooth="yes"/>
      <point x="347" y="387"/>
      <point x="303" y="360"/>
      <point x="262" y="319" type="curve" smooth="yes"/>
      <point x="219" y="275"/>
      <point x="176" y="237"/>
      <point x="132" y="207" type="curve" smooth="yes"/>
      <point x="95" y="182"/>
      <point x="45" y="157"/>
      <point x="4" y="144" type="curve" smooth="yes"/>
      <point x="-39" y="130"/>
      <point x="-63" y="102"/>
      <point x="-63" y="62" type="curve" smooth="yes"/>
      <point x="-63" y="15"/>
      <point x="-35" y="-11"/>
    </contour>
    <contour>
      <point x="189" y="-151" type="curve" smooth="yes"/>
      <point x="230" y="-151"/>
      <point x="272" y="-118"/>
      <point x="272" y="-68" type="curve" smooth="yes"/>
      <point x="272" y="-26"/>
      <point x="240" y="7"/>
      <point x="197" y="7" type="curve" smooth="yes"/>
      <point x="155" y="7"/>
      <point x="116" y="-29"/>
      <point x="116" y="-77" type="curve" smooth="yes"/>
      <point x="116" y="-120"/>
      <point x="147" y="-151"/>
    </contour>
  </outline>
</glyph>
<glyph name="uni07A5" format="2">
  <advance width="573"/>
  <unicode hex="07A5"/>
  <outline>
    <contour>
      <point x="14" y="-78" type="curve" smooth="yes"/>
      <point x="54" y="-78"/>
      <point x="104" y="-61"/>
      <point x="167" y="-22" type="curve" smooth="yes"/>
      <point x="254" y="31"/>
      <point x="414" y="150"/>
      <point x="466" y="222" type="curve" smooth="yes"/>
      <point x="491" y="257"/>
      <point x="506" y="297"/>
      <point x="506" y="338" type="curve" smooth="yes"/>
      <point x="506" y="398"/>
      <point x="453" y="432"/>
      <point x="370" y="432" type="curve" smooth="yes"/>
      <point x="264" y="432"/>
      <point x="119" y="333"/>
      <point x="119" y="218" type="curve" smooth="yes"/>
      <point x="119" y="181"/>
      <point x="140" y="151"/>
      <point x="176" y="140" type="curve"/>
      <point x="156" y="130"/>
      <point x="146" y="124"/>
      <point x="120" y="112" type="curve" smooth="yes"/>
      <point x="90" y="98"/>
      <point x="31" y="86"/>
      <point x="-2" y="74" type="curve" smooth="yes"/>
      <point x="-33" y="63"/>
      <point x="-62" y="45"/>
      <point x="-62" y="4" type="curve" smooth="yes"/>
      <point x="-62" y="-44"/>
      <point x="-33" y="-78"/>
    </contour>
    <contour>
      <point x="297" y="225" type="curve"/>
      <point x="281" y="229"/>
      <point x="272" y="238"/>
      <point x="272" y="248" type="curve" smooth="yes"/>
      <point x="272" y="275"/>
      <point x="313" y="315"/>
      <point x="339" y="315" type="curve" smooth="yes"/>
      <point x="351" y="315"/>
      <point x="354" y="311"/>
      <point x="354" y="306" type="curve" smooth="yes"/>
      <point x="354" y="288"/>
      <point x="340" y="260"/>
    </contour>
    <contour>
      <point x="356" y="482" type="curve" smooth="yes"/>
      <point x="398" y="482"/>
      <point x="439" y="516"/>
      <point x="439" y="563" type="curve" smooth="yes"/>
      <point x="439" y="606"/>
      <point x="407" y="641"/>
      <point x="365" y="641" type="curve" smooth="yes"/>
      <point x="322" y="641"/>
      <point x="284" y="605"/>
      <point x="284" y="556" type="curve" smooth="yes"/>
      <point x="284" y="513"/>
      <point x="314" y="482"/>
    </contour>
  </outline>
</glyph>
<glyph name="uni07A6" format="2">
  <unicode hex="07A6"/>
  <outline>
    <contour>
      <point x="64" y="428" type="curve" smooth="yes"/>
      <point x="85" y="428"/>
      <point x="109" y="432"/>
      <point x="145" y="448" type="curve" smooth="yes"/>
      <point x="183" y="465"/>
      <point x="301" y="527"/>
      <point x="325" y="550" type="curve" smooth="yes"/>
      <point x="352" y="576"/>
      <point x="362" y="601"/>
      <point x="362" y="624" type="curve" smooth="yes"/>
      <point x="362" y="654"/>
      <point x="342" y="673"/>
      <point x="313" y="673" type="curve" smooth="yes"/>
      <point x="288" y="673"/>
      <point x="261" y="662"/>
      <point x="244" y="650" type="curve" smooth="yes"/>
      <point x="196" y="615"/>
      <point x="143" y="572"/>
      <point x="67" y="553" type="curve" smooth="yes"/>
      <point x="20" y="541"/>
      <point x="-4" y="518"/>
      <point x="-4" y="483" type="curve" smooth="yes"/>
      <point x="-4" y="448"/>
      <point x="24" y="428"/>
    </contour>
  </outline>
</glyph>
<glyph name="uni07A7" format="2">
  <unicode hex="07A7"/>
  <outline>
    <contour>
      <point x="39" y="593" type="curve" smooth="yes"/>
      <point x="60" y="593"/>
      <point x="83" y="598"/>
      <point x="121" y="613" type="curve" smooth="yes"/>
      <point x="154" y="626"/>
      <point x="255" y="679"/>
      <point x="281" y="701" type="curve" smooth="yes"/>
      <point x="310" y="725"/>
      <point x="317" y="752"/>
      <point x="317" y="776" type="curve" smooth="yes"/>
      <point x="317" y="806"/>
      <point x="297" y="825"/>
      <point x="269" y="825" type="curve" smooth="yes"/>
      <point x="242" y="825"/>
      <point x="222" y="814"/>
      <point x="199" y="801" type="curve" smooth="yes"/>
      <point x="151" y="775"/>
      <point x="110" y="734"/>
      <point x="43" y="718" type="curve" smooth="yes"/>
      <point x="-5" y="707"/>
      <point x="-29" y="682"/>
      <point x="-29" y="648" type="curve" smooth="yes"/>
      <point x="-29" y="612"/>
      <point x="0" y="593"/>
    </contour>
    <contour>
      <point x="114" y="430" type="curve" smooth="yes"/>
      <point x="134" y="430"/>
      <point x="158" y="434"/>
      <point x="195" y="450" type="curve" smooth="yes"/>
      <point x="228" y="464"/>
      <point x="330" y="515"/>
      <point x="355" y="538" type="curve" smooth="yes"/>
      <point x="383" y="563"/>
      <point x="392" y="590"/>
      <point x="392" y="613" type="curve" smooth="yes"/>
      <point x="392" y="643"/>
      <point x="372" y="662"/>
      <point x="343" y="662" type="curve" smooth="yes"/>
      <point x="318" y="662"/>
      <point x="295" y="652"/>
      <point x="273" y="639" type="curve" smooth="yes"/>
      <point x="226" y="611"/>
      <point x="184" y="572"/>
      <point x="117" y="555" type="curve" smooth="yes"/>
      <point x="70" y="543"/>
      <point x="46" y="519"/>
      <point x="46" y="485" type="curve" smooth="yes"/>
      <point x="46" y="450"/>
      <point x="74" y="430"/>
    </contour>
  </outline>
</glyph>
<glyph name="uni07A8" format="2">
  <unicode hex="07A8"/>
  <outline>
    <contour>
      <point x="-10" y="-292" type="curve" smooth="yes"/>
      <point x="11" y="-292"/>
      <point x="34" y="-288"/>
      <point x="72" y="-273" type="curve" smooth="yes"/>
      <point x="109" y="-257"/>
      <point x="226" y="-195"/>
      <point x="252" y="-171" type="curve" smooth="yes"/>
      <point x="280" y="-146"/>
      <point x="288" y="-120"/>
      <point x="288" y="-96" type="curve" smooth="yes"/>
      <point x="288" y="-66"/>
      <point x="268" y="-48"/>
      <point x="240" y="-48" type="curve" smooth="yes"/>
      <point x="214" y="-48"/>
      <point x="192" y="-57"/>
      <point x="170" y="-71" type="curve" smooth="yes"/>
      <point x="116" y="-104"/>
      <point x="70" y="-150"/>
      <point x="-6" y="-168" type="curve" smooth="yes"/>
      <point x="-54" y="-179"/>
      <point x="-78" y="-203"/>
      <point x="-78" y="-237" type="curve" smooth="yes"/>
      <point x="-78" y="-273"/>
      <point x="-49" y="-292"/>
    </contour>
  </outline>
</glyph>
<glyph name="uni07A9" format="2">
  <unicode hex="07A9"/>
  <outline>
    <contour>
      <point x="39" y="-248" type="curve" smooth="yes"/>
      <point x="60" y="-248"/>
      <point x="83" y="-245"/>
      <point x="121" y="-229" type="curve" smooth="yes"/>
      <point x="155" y="-215"/>
      <point x="255" y="-163"/>
      <point x="281" y="-140" type="curve" smooth="yes"/>
      <point x="309" y="-115"/>
      <point x="317" y="-89"/>
      <point x="317" y="-65" type="curve" smooth="yes"/>
      <point x="317" y="-35"/>
      <point x="297" y="-17"/>
      <point x="269" y="-17" type="curve" smooth="yes"/>
      <point x="242" y="-17"/>
      <point x="221" y="-28"/>
      <point x="199" y="-40" type="curve" smooth="yes"/>
      <point x="152" y="-67"/>
      <point x="111" y="-108"/>
      <point x="44" y="-124" type="curve" smooth="yes"/>
      <point x="-4" y="-135"/>
      <point x="-29" y="-159"/>
      <point x="-29" y="-193" type="curve" smooth="yes"/>
      <point x="-29" y="-229"/>
      <point x="0" y="-248"/>
    </contour>
    <contour>
      <point x="114" y="-421" type="curve" smooth="yes"/>
      <point x="134" y="-421"/>
      <point x="159" y="-417"/>
      <point x="195" y="-402" type="curve" smooth="yes"/>
      <point x="228" y="-388"/>
      <point x="330" y="-336"/>
      <point x="355" y="-313" type="curve" smooth="yes"/>
      <point x="383" y="-288"/>
      <point x="392" y="-262"/>
      <point x="392" y="-238" type="curve" smooth="yes"/>
      <point x="392" y="-208"/>
      <point x="372" y="-190"/>
      <point x="343" y="-190" type="curve" smooth="yes"/>
      <point x="318" y="-190"/>
      <point x="296" y="-199"/>
      <point x="274" y="-212" type="curve" smooth="yes"/>
      <point x="227" y="-240"/>
      <point x="184" y="-280"/>
      <point x="117" y="-296" type="curve" smooth="yes"/>
      <point x="70" y="-307"/>
      <point x="46" y="-332"/>
      <point x="46" y="-366" type="curve" smooth="yes"/>
      <point x="46" y="-402"/>
      <point x="74" y="-421"/>
    </contour>
  </outline>
</glyph>
<glyph name="uni07AA" format="2">
  <unicode hex="07AA"/>
  <outline>
    <contour>
      <point x="74" y="436" type="curve" smooth="yes"/>
      <point x="107" y="436"/>
      <point x="149" y="441"/>
      <point x="217" y="484" type="curve" smooth="yes"/>
      <point x="286" y="528"/>
      <point x="324" y="575"/>
      <point x="324" y="629" type="curve" smooth="yes"/>
      <point x="324" y="680"/>
      <point x="240" y="714"/>
      <point x="151" y="714" type="curve" smooth="yes"/>
      <point x="79" y="714"/>
      <point x="32" y="693"/>
      <point x="32" y="648" type="curve" smooth="yes"/>
      <point x="32" y="605"/>
      <point x="57" y="591"/>
      <point x="109" y="591" type="curve" smooth="yes"/>
      <point x="116" y="591"/>
      <point x="128" y="593"/>
      <point x="135" y="593" type="curve" smooth="yes"/>
      <point x="145" y="593"/>
      <point x="151" y="593"/>
      <point x="181" y="591" type="curve"/>
      <point x="142" y="569"/>
      <point x="56" y="551"/>
      <point x="41" y="546" type="curve" smooth="yes"/>
      <point x="13" y="537"/>
      <point x="-5" y="528"/>
      <point x="-5" y="495" type="curve" smooth="yes"/>
      <point x="-5" y="456"/>
      <point x="22" y="436"/>
    </contour>
  </outline>
</glyph>
<glyph name="uni07AB" format="2">
  <unicode hex="07AB"/>
  <outline>
    <contour>
      <point x="378" y="436" type="curve" smooth="yes"/>
      <point x="411" y="436"/>
      <point x="452" y="442"/>
      <point x="520" y="484" type="curve" smooth="yes"/>
      <point x="590" y="527"/>
      <point x="628" y="575"/>
      <point x="628" y="629" type="curve" smooth="yes"/>
      <point x="628" y="680"/>
      <point x="544" y="714"/>
      <point x="455" y="714" type="curve" smooth="yes"/>
      <point x="383" y="714"/>
      <point x="336" y="693"/>
      <point x="336" y="648" type="curve" smooth="yes"/>
      <point x="336" y="605"/>
      <point x="361" y="591"/>
      <point x="397" y="591" type="curve" smooth="yes"/>
      <point x="411" y="591"/>
      <point x="427" y="594"/>
      <point x="440" y="594" type="curve" smooth="yes"/>
      <point x="455" y="594"/>
      <point x="468" y="593"/>
      <point x="485" y="591" type="curve"/>
      <point x="444" y="569"/>
      <point x="358" y="551"/>
      <point x="345" y="546" type="curve" smooth="yes"/>
      <point x="316" y="535"/>
      <point x="299" y="528"/>
      <point x="299" y="495" type="curve" smooth="yes"/>
      <point x="299" y="456"/>
      <point x="326" y="436"/>
    </contour>
    <contour>
      <point x="74" y="436" type="curve" smooth="yes"/>
      <point x="107" y="436"/>
      <point x="149" y="442"/>
      <point x="217" y="484" type="curve" smooth="yes"/>
      <point x="287" y="527"/>
      <point x="324" y="575"/>
      <point x="324" y="629" type="curve" smooth="yes"/>
      <point x="324" y="680"/>
      <point x="240" y="714"/>
      <point x="151" y="714" type="curve" smooth="yes"/>
      <point x="79" y="714"/>
      <point x="32" y="693"/>
      <point x="32" y="648" type="curve" smooth="yes"/>
      <point x="32" y="605"/>
      <point x="57" y="591"/>
      <point x="90" y="591" type="curve" smooth="yes"/>
      <point x="107" y="591"/>
      <point x="130" y="593"/>
      <point x="139" y="593" type="curve" smooth="yes"/>
      <point x="149" y="593"/>
      <point x="166" y="592"/>
      <point x="181" y="591" type="curve"/>
      <point x="142" y="569"/>
      <point x="55" y="551"/>
      <point x="41" y="546" type="curve" smooth="yes"/>
      <point x="12" y="536"/>
      <point x="-5" y="528"/>
      <point x="-5" y="495" type="curve" smooth="yes"/>
      <point x="-5" y="456"/>
      <point x="22" y="436"/>
    </contour>
  </outline>
</glyph>
<glyph name="uni07AC" format="2">
  <unicode hex="07AC"/>
  <outline>
    <contour>
      <point x="156" y="427" type="curve" smooth="yes"/>
      <point x="228" y="427"/>
      <point x="278" y="439"/>
      <point x="278" y="485" type="curve" smooth="yes"/>
      <point x="278" y="542"/>
      <point x="258" y="550"/>
      <point x="222" y="550" type="curve" smooth="yes"/>
      <point x="204" y="550"/>
      <point x="178" y="546"/>
      <point x="172" y="546" type="curve" smooth="yes"/>
      <point x="159" y="546"/>
      <point x="155" y="549"/>
      <point x="148" y="553" type="curve"/>
      <point x="165" y="564"/>
      <point x="215" y="590"/>
      <point x="227" y="601" type="curve" smooth="yes"/>
      <point x="251" y="623"/>
      <point x="257" y="639"/>
      <point x="257" y="652" type="curve" smooth="yes"/>
      <point x="257" y="691"/>
      <point x="231" y="709"/>
      <point x="197" y="709" type="curve" smooth="yes"/>
      <point x="164" y="709"/>
      <point x="137" y="695"/>
      <point x="103" y="670" type="curve" smooth="yes"/>
      <point x="20" y="609"/>
      <point x="-5" y="600"/>
      <point x="-5" y="546" type="curve" smooth="yes"/>
      <point x="-5" y="484"/>
      <point x="64" y="427"/>
    </contour>
  </outline>
</glyph>
<glyph name="uni07AD" format="2">
  <unicode hex="07AD"/>
  <outline>
    <contour>
      <point x="452" y="427" type="curve" smooth="yes"/>
      <point x="524" y="427"/>
      <point x="574" y="439"/>
      <point x="574" y="485" type="curve" smooth="yes"/>
      <point x="574" y="542"/>
      <point x="554" y="550"/>
      <point x="518" y="550" type="curve" smooth="yes"/>
      <point x="500" y="550"/>
      <point x="474" y="546"/>
      <point x="468" y="546" type="curve" smooth="yes"/>
      <point x="455" y="546"/>
      <point x="451" y="549"/>
      <point x="444" y="553" type="curve"/>
      <point x="461" y="564"/>
      <point x="511" y="590"/>
      <point x="523" y="601" type="curve" smooth="yes"/>
      <point x="547" y="623"/>
      <point x="553" y="639"/>
      <point x="553" y="652" type="curve" smooth="yes"/>
      <point x="553" y="691"/>
      <point x="527" y="709"/>
      <point x="493" y="709" type="curve" smooth="yes"/>
      <point x="460" y="709"/>
      <point x="433" y="695"/>
      <point x="399" y="670" type="curve" smooth="yes"/>
      <point x="316" y="609"/>
      <point x="291" y="600"/>
      <point x="291" y="546" type="curve" smooth="yes"/>
      <point x="291" y="484"/>
      <point x="360" y="427"/>
    </contour>
    <contour>
      <point x="156" y="427" type="curve" smooth="yes"/>
      <point x="228" y="427"/>
      <point x="278" y="439"/>
      <point x="278" y="485" type="curve" smooth="yes"/>
      <point x="278" y="542"/>
      <point x="258" y="550"/>
      <point x="222" y="550" type="curve" smooth="yes"/>
      <point x="204" y="550"/>
      <point x="178" y="546"/>
      <point x="172" y="546" type="curve" smooth="yes"/>
      <point x="159" y="546"/>
      <point x="155" y="549"/>
      <point x="148" y="553" type="curve"/>
      <point x="165" y="564"/>
      <point x="215" y="590"/>
      <point x="227" y="601" type="curve" smooth="yes"/>
      <point x="251" y="623"/>
      <point x="257" y="639"/>
      <point x="257" y="652" type="curve" smooth="yes"/>
      <point x="257" y="691"/>
      <point x="231" y="709"/>
      <point x="197" y="709" type="curve" smooth="yes"/>
      <point x="164" y="709"/>
      <point x="137" y="695"/>
      <point x="103" y="670" type="curve" smooth="yes"/>
      <point x="20" y="609"/>
      <point x="-5" y="600"/>
      <point x="-5" y="546" type="curve" smooth="yes"/>
      <point x="-5" y="484"/>
      <point x="64" y="427"/>
    </contour>
  </outline>
</glyph>
<glyph name="uni07AE" format="2">
  <unicode hex="07AE"/>
  <outline>
    <contour>
      <point x="74" y="436" type="curve" smooth="yes"/>
      <point x="120" y="436"/>
      <point x="162" y="451"/>
      <point x="227" y="490" type="curve"/>
      <point x="257" y="454"/>
      <point x="306" y="427"/>
      <point x="367" y="427" type="curve" smooth="yes"/>
      <point x="439" y="427"/>
      <point x="488" y="439"/>
      <point x="488" y="485" type="curve" smooth="yes"/>
      <point x="488" y="542"/>
      <point x="470" y="550"/>
      <point x="432" y="550" type="curve" smooth="yes"/>
      <point x="415" y="550"/>
      <point x="388" y="546"/>
      <point x="383" y="546" type="curve" smooth="yes"/>
      <point x="369" y="546"/>
      <point x="372" y="546"/>
      <point x="358" y="553" type="curve"/>
      <point x="366" y="557"/>
      <point x="430" y="595"/>
      <point x="437" y="601" type="curve" smooth="yes"/>
      <point x="461" y="622"/>
      <point x="468" y="639"/>
      <point x="468" y="652" type="curve" smooth="yes"/>
      <point x="468" y="691"/>
      <point x="442" y="709"/>
      <point x="409" y="709" type="curve" smooth="yes"/>
      <point x="374" y="709"/>
      <point x="347" y="697"/>
      <point x="308" y="665" type="curve"/>
      <point x="277" y="696"/>
      <point x="215" y="714"/>
      <point x="151" y="714" type="curve" smooth="yes"/>
      <point x="79" y="714"/>
      <point x="32" y="693"/>
      <point x="32" y="648" type="curve" smooth="yes"/>
      <point x="32" y="605"/>
      <point x="57" y="589"/>
      <point x="101" y="589" type="curve" smooth="yes"/>
      <point x="118" y="589"/>
      <point x="140" y="593"/>
      <point x="146" y="593" type="curve" smooth="yes"/>
      <point x="153" y="593"/>
      <point x="164" y="592"/>
      <point x="181" y="591" type="curve"/>
      <point x="144" y="573"/>
      <point x="67" y="554"/>
      <point x="41" y="546" type="curve" smooth="yes"/>
      <point x="12" y="537"/>
      <point x="-5" y="528"/>
      <point x="-5" y="495" type="curve" smooth="yes"/>
      <point x="-5" y="456"/>
      <point x="22" y="436"/>
    </contour>
  </outline>
</glyph>
<glyph name="uni07AF" format="2">
  <unicode hex="07AF"/>
  <outline>
    <contour>
      <point x="151" y="434" type="curve" smooth="yes"/>
      <point x="236" y="434"/>
      <point x="316" y="472"/>
      <point x="316" y="529" type="curve" smooth="yes"/>
      <point x="316" y="559"/>
      <point x="297" y="576"/>
      <point x="268" y="576" type="curve" smooth="yes"/>
      <point x="234" y="576"/>
      <point x="178" y="554"/>
      <point x="155" y="554" type="curve" smooth="yes"/>
      <point x="135" y="554"/>
      <point x="132" y="567"/>
      <point x="132" y="589" type="curve" smooth="yes"/>
      <point x="132" y="634"/>
      <point x="274" y="733"/>
      <point x="310" y="733" type="curve" smooth="yes"/>
      <point x="312" y="733"/>
      <point x="313" y="732"/>
      <point x="313" y="731" type="curve" smooth="yes"/>
      <point x="313" y="724"/>
      <point x="304" y="718"/>
      <point x="293" y="710" type="curve" smooth="yes"/>
      <point x="277" y="698"/>
      <point x="264" y="685"/>
      <point x="264" y="661" type="curve" smooth="yes"/>
      <point x="264" y="627"/>
      <point x="292" y="598"/>
      <point x="325" y="598" type="curve" smooth="yes"/>
      <point x="345" y="598"/>
      <point x="362" y="608"/>
      <point x="401" y="648" type="curve" smooth="yes"/>
      <point x="440" y="688"/>
      <point x="453" y="719"/>
      <point x="453" y="758" type="curve" smooth="yes"/>
      <point x="453" y="819"/>
      <point x="396" y="857"/>
      <point x="332" y="857" type="curve" smooth="yes"/>
      <point x="175" y="857"/>
      <point x="-3" y="700"/>
      <point x="-3" y="569" type="curve" smooth="yes"/>
      <point x="-3" y="486"/>
      <point x="57" y="434"/>
    </contour>
  </outline>
</glyph>
<glyph name="uni07B0" format="2">
  <unicode hex="07B0"/>
  <outline>
    <contour>
      <point x="137" y="435" type="curve" smooth="yes"/>
      <point x="238" y="435"/>
      <point x="331" y="519"/>
      <point x="331" y="624" type="curve" smooth="yes"/>
      <point x="331" y="701"/>
      <point x="291" y="737"/>
      <point x="208" y="737" type="curve" smooth="yes"/>
      <point x="103" y="737"/>
      <point x="-4" y="665"/>
      <point x="-4" y="564" type="curve" smooth="yes"/>
      <point x="-4" y="487"/>
      <point x="35" y="435"/>
    </contour>
    <contour>
      <point x="148" y="548" type="curve" smooth="yes"/>
      <point x="135" y="548"/>
      <point x="122" y="555"/>
      <point x="122" y="575" type="curve" smooth="yes"/>
      <point x="122" y="605"/>
      <point x="149" y="630"/>
      <point x="186" y="630" type="curve" smooth="yes"/>
      <point x="202" y="630"/>
      <point x="211" y="621"/>
      <point x="211" y="606" type="curve" smooth="yes"/>
      <point x="211" y="571"/>
      <point x="182" y="548"/>
    </contour>
  </outline>
</glyph>
<glyph name="uni07B1" format="2">
  <advance width="548"/>
  <unicode hex="07B1"/>
  <outline>
    <contour>
      <point x="244" y="-176" type="curve" smooth="yes"/>
      <point x="309" y="-176"/>
      <point x="369" y="-160"/>
      <point x="408" y="-135" type="curve" smooth="yes"/>
      <point x="440" y="-114"/>
      <point x="458" y="-89"/>
      <point x="458" y="-62" type="curve" smooth="yes"/>
      <point x="458" y="-25"/>
      <point x="434" y="-4"/>
      <point x="395" y="-4" type="curve" smooth="yes"/>
      <point x="379" y="-4"/>
      <point x="360" y="-11"/>
      <point x="342" y="-24" type="curve" smooth="yes"/>
      <point x="324" y="-37"/>
      <point x="295" y="-56"/>
      <point x="241" y="-56" type="curve" smooth="yes"/>
      <point x="194" y="-56"/>
      <point x="170" y="-42"/>
      <point x="170" y="-23" type="curve" smooth="yes"/>
      <point x="170" y="-2"/>
      <point x="194" y="21"/>
      <point x="252" y="51" type="curve" smooth="yes"/>
      <point x="410" y="132"/>
      <point x="475" y="197"/>
      <point x="475" y="282" type="curve" smooth="yes"/>
      <point x="475" y="356"/>
      <point x="409" y="418"/>
      <point x="310" y="418" type="curve" smooth="yes"/>
      <point x="194" y="418"/>
      <point x="104" y="341"/>
      <point x="104" y="260" type="curve" smooth="yes"/>
      <point x="104" y="202"/>
      <point x="133" y="159"/>
      <point x="191" y="139" type="curve"/>
      <point x="158" y="119"/>
      <point x="145" y="112"/>
      <point x="115" y="94" type="curve" smooth="yes"/>
      <point x="40" y="50"/>
      <point x="25" y="11"/>
      <point x="25" y="-31" type="curve" smooth="yes"/>
      <point x="25" y="-122"/>
      <point x="108" y="-176"/>
    </contour>
    <contour>
      <point x="316" y="233" type="curve"/>
      <point x="279" y="233"/>
      <point x="254" y="243"/>
      <point x="254" y="258" type="curve" smooth="yes"/>
      <point x="254" y="280"/>
      <point x="282" y="295"/>
      <point x="306" y="295" type="curve" smooth="yes"/>
      <point x="321" y="295"/>
      <point x="335" y="288"/>
      <point x="335" y="273" type="curve" smooth="yes"/>
      <point x="335" y="259"/>
      <point x="330" y="243"/>
    </contour>
  </outline>
</glyph>
<glyph name="quoteleft" format="2">
  <advance width="364"/>
  <unicode hex="2018"/>
  <outline>
    <contour>
      <point x="124" y="474" type="curve" smooth="yes"/>
      <point x="180" y="474"/>
      <point x="239" y="514"/>
      <point x="239" y="575" type="curve" smooth="yes"/>
      <point x="239" y="612"/>
      <point x="217" y="643"/>
      <point x="183" y="652" type="curve"/>
      <point x="188" y="658"/>
      <point x="195" y="665"/>
      <point x="229" y="700" type="curve" smooth="yes"/>
      <point x="254" y="725"/>
      <point x="257" y="735"/>
      <point x="257" y="746" type="curve" smooth="yes"/>
      <point x="257" y="765"/>
      <point x="242" y="785"/>
      <point x="215" y="785" type="curve" smooth="yes"/>
      <point x="196" y="785"/>
      <point x="172" y="772"/>
      <point x="146" y="746" type="curve" smooth="yes"/>
      <point x="104" y="705"/>
      <point x="39" y="620"/>
      <point x="39" y="557" type="curve" smooth="yes"/>
      <point x="39" y="501"/>
      <point x="73" y="474"/>
    </contour>
  </outline>
</glyph>
<glyph name="quoteright" format="2">
  <advance width="364"/>
  <unicode hex="2019"/>
  <outline>
    <contour>
      <point x="143" y="474" type="curve" smooth="yes"/>
      <point x="162" y="474"/>
      <point x="186" y="488"/>
      <point x="213" y="514" type="curve" smooth="yes"/>
      <point x="254" y="554"/>
      <point x="319" y="640"/>
      <point x="319" y="701" type="curve" smooth="yes"/>
      <point x="319" y="757"/>
      <point x="285" y="785"/>
      <point x="235" y="785" type="curve" smooth="yes"/>
      <point x="178" y="785"/>
      <point x="121" y="746"/>
      <point x="121" y="684" type="curve" smooth="yes"/>
      <point x="121" y="647"/>
      <point x="142" y="616"/>
      <point x="175" y="607" type="curve"/>
      <point x="167" y="599"/>
      <point x="154" y="586"/>
      <point x="115" y="543" type="curve" smooth="yes"/>
      <point x="105" y="532"/>
      <point x="102" y="524"/>
      <point x="102" y="512" type="curve" smooth="yes"/>
      <point x="102" y="493"/>
      <point x="116" y="474"/>
    </contour>
  </outline>
</glyph>
<glyph name="quotedblleft" format="2">
  <advance width="597"/>
  <unicode hex="201C"/>
  <outline>
    <contour>
      <point x="368" y="474" type="curve" smooth="yes"/>
      <point x="423" y="474"/>
      <point x="482" y="514"/>
      <point x="482" y="575" type="curve" smooth="yes"/>
      <point x="482" y="612"/>
      <point x="461" y="643"/>
      <point x="426" y="652" type="curve"/>
      <point x="433" y="658"/>
      <point x="438" y="665"/>
      <point x="477" y="704" type="curve" smooth="yes"/>
      <point x="498" y="725"/>
      <point x="501" y="735"/>
      <point x="501" y="746" type="curve" smooth="yes"/>
      <point x="501" y="765"/>
      <point x="486" y="785"/>
      <point x="458" y="785" type="curve" smooth="yes"/>
      <point x="440" y="785"/>
      <point x="415" y="772"/>
      <point x="389" y="746" type="curve" smooth="yes"/>
      <point x="347" y="704"/>
      <point x="282" y="620"/>
      <point x="282" y="557" type="curve" smooth="yes"/>
      <point x="282" y="501"/>
      <point x="316" y="474"/>
    </contour>
    <contour>
      <point x="110" y="474" type="curve" smooth="yes"/>
      <point x="165" y="474"/>
      <point x="224" y="514"/>
      <point x="224" y="575" type="curve" smooth="yes"/>
      <point x="224" y="612"/>
      <point x="202" y="643"/>
      <point x="168" y="652" type="curve"/>
      <point x="173" y="658"/>
      <point x="182" y="667"/>
      <point x="220" y="705" type="curve" smooth="yes"/>
      <point x="241" y="726"/>
      <point x="242" y="736"/>
      <point x="242" y="746" type="curve" smooth="yes"/>
      <point x="242" y="765"/>
      <point x="227" y="785"/>
      <point x="200" y="785" type="curve" smooth="yes"/>
      <point x="181" y="785"/>
      <point x="158" y="771"/>
      <point x="132" y="746" type="curve" smooth="yes"/>
      <point x="89" y="705"/>
      <point x="24" y="620"/>
      <point x="24" y="557" type="curve" smooth="yes"/>
      <point x="24" y="501"/>
      <point x="58" y="474"/>
    </contour>
  </outline>
</glyph>
<glyph name="quotedblright" format="2">
  <advance width="597"/>
  <unicode hex="201D"/>
  <outline>
    <contour>
      <point x="412" y="474" type="curve" smooth="yes"/>
      <point x="431" y="474"/>
      <point x="455" y="487"/>
      <point x="482" y="514" type="curve" smooth="yes"/>
      <point x="523" y="555"/>
      <point x="589" y="640"/>
      <point x="589" y="701" type="curve" smooth="yes"/>
      <point x="589" y="757"/>
      <point x="554" y="785"/>
      <point x="504" y="785" type="curve" smooth="yes"/>
      <point x="447" y="785"/>
      <point x="390" y="746"/>
      <point x="390" y="684" type="curve" smooth="yes"/>
      <point x="390" y="647"/>
      <point x="410" y="617"/>
      <point x="445" y="607" type="curve"/>
      <point x="440" y="600"/>
      <point x="432" y="589"/>
      <point x="390" y="550" type="curve" smooth="yes"/>
      <point x="373" y="534"/>
      <point x="371" y="525"/>
      <point x="371" y="513" type="curve" smooth="yes"/>
      <point x="371" y="494"/>
      <point x="385" y="474"/>
    </contour>
    <contour>
      <point x="154" y="474" type="curve" smooth="yes"/>
      <point x="173" y="474"/>
      <point x="197" y="487"/>
      <point x="224" y="514" type="curve" smooth="yes"/>
      <point x="265" y="555"/>
      <point x="331" y="640"/>
      <point x="331" y="701" type="curve" smooth="yes"/>
      <point x="331" y="757"/>
      <point x="296" y="785"/>
      <point x="246" y="785" type="curve" smooth="yes"/>
      <point x="189" y="785"/>
      <point x="132" y="746"/>
      <point x="132" y="684" type="curve" smooth="yes"/>
      <point x="132" y="647"/>
      <point x="152" y="617"/>
      <point x="187" y="607" type="curve"/>
      <point x="182" y="600"/>
      <point x="173" y="590"/>
      <point x="132" y="550" type="curve" smooth="yes"/>
      <point x="115" y="534"/>
      <point x="113" y="525"/>
      <point x="113" y="513" type="curve" smooth="yes"/>
      <point x="113" y="494"/>
      <point x="127" y="474"/>
    </contour>
  </outline>
</glyph>
<glyph name="uniFDF2" format="2">
  <advance width="1182"/>
  <unicode hex="FDF2"/>
  <outline>
    <contour>
      <point x="466" y="0" type="curve" smooth="yes"/>
      <point x="514" y="0"/>
      <point x="540" y="7"/>
      <point x="597" y="35" type="curve"/>
      <point x="621" y="13"/>
      <point x="658" y="0"/>
      <point x="708" y="0" type="curve" smooth="yes"/>
      <point x="770" y="0"/>
      <point x="817" y="10"/>
      <point x="830" y="32" type="curve" smooth="yes"/>
      <point x="854" y="74"/>
      <point x="868" y="125"/>
      <point x="868" y="178" type="curve" smooth="yes"/>
      <point x="868" y="301"/>
      <point x="862" y="470"/>
      <point x="856" y="690" type="curve"/>
      <point x="810" y="671"/>
      <point x="764" y="649"/>
      <point x="718" y="624" type="curve"/>
      <point x="775" y="374"/>
      <point x="801" y="274"/>
      <point x="815" y="161" type="curve"/>
      <point x="776" y="143"/>
      <point x="735" y="138"/>
      <point x="716" y="138" type="curve" smooth="yes"/>
      <point x="673" y="138"/>
      <point x="638" y="146"/>
      <point x="609" y="157" type="curve"/>
      <point x="616" y="596" type="line"/>
      <point x="591" y="584"/>
      <point x="560" y="569"/>
      <point x="490" y="533" type="curve"/>
      <point x="559" y="157" type="line"/>
      <point x="525" y="145"/>
      <point x="501" y="138"/>
      <point x="471" y="138" type="curve" smooth="yes"/>
      <point x="441" y="138"/>
      <point x="407" y="147"/>
      <point x="388" y="160" type="curve"/>
      <point x="388" y="520" type="line"/>
      <point x="343" y="499"/>
      <point x="302" y="475"/>
      <point x="264" y="448" type="curve"/>
      <point x="269" y="408" type="line"/>
      <point x="214" y="384"/>
      <point x="124" y="302"/>
      <point x="105" y="261" type="curve" smooth="yes"/>
      <point x="95" y="240"/>
      <point x="68" y="143"/>
      <point x="68" y="129" type="curve" smooth="yes"/>
      <point x="68" y="80"/>
      <point x="192" y="37"/>
      <point x="284" y="29" type="curve"/>
      <point x="297" y="56"/>
      <point x="311" y="83"/>
      <point x="324" y="110" type="curve"/>
      <point x="343" y="28"/>
      <point x="370" y="1"/>
    </contour>
    <contour>
      <point x="314" y="188" type="curve"/>
      <point x="251" y="191"/>
      <point x="198" y="196"/>
      <point x="139" y="236" type="curve"/>
      <point x="175" y="261"/>
      <point x="225" y="280"/>
      <point x="291" y="295" type="curve"/>
      <point x="300" y="250"/>
      <point x="308" y="214"/>
    </contour>
    <contour>
      <point x="496" y="636" type="curve" smooth="yes"/>
      <point x="520" y="636"/>
      <point x="544" y="653"/>
      <point x="552" y="694" type="curve"/>
      <point x="569" y="669"/>
      <point x="587" y="663"/>
      <point x="600" y="663" type="curve" smooth="yes"/>
      <point x="639" y="663"/>
      <point x="667" y="700"/>
      <point x="667" y="739" type="curve" smooth="yes"/>
      <point x="667" y="756"/>
      <point x="662" y="789"/>
      <point x="645" y="823" type="curve"/>
      <point x="628" y="818"/>
      <point x="612" y="801"/>
      <point x="612" y="785" type="curve"/>
      <point x="615" y="774" type="line"/>
      <point x="625" y="750"/>
      <point x="632" y="733"/>
      <point x="634" y="725" type="curve"/>
      <point x="630" y="717"/>
      <point x="619" y="710"/>
      <point x="610" y="710" type="curve" smooth="yes"/>
      <point x="572" y="710"/>
      <point x="564" y="737"/>
      <point x="559" y="780" type="curve"/>
      <point x="530" y="762" type="line"/>
      <point x="530" y="732"/>
      <point x="526" y="682"/>
      <point x="500" y="682" type="curve" smooth="yes"/>
      <point x="480" y="682"/>
      <point x="469" y="693"/>
      <point x="469" y="716" type="curve" smooth="yes"/>
      <point x="469" y="726"/>
      <point x="472" y="737"/>
      <point x="474" y="749" type="curve"/>
      <point x="456" y="752" type="line"/>
      <point x="446" y="734"/>
      <point x="440" y="715"/>
      <point x="440" y="697" type="curve" smooth="yes"/>
      <point x="440" y="658"/>
      <point x="463" y="636"/>
    </contour>
    <contour>
      <point x="534" y="794" type="line"/>
      <point x="548" y="817"/>
      <point x="557" y="848"/>
      <point x="557" y="883" type="curve" smooth="yes"/>
      <point x="557" y="917"/>
      <point x="554" y="951"/>
      <point x="549" y="958" type="curve"/>
      <point x="525" y="955"/>
      <point x="513" y="965"/>
      <point x="513" y="940" type="curve" smooth="yes"/>
      <point x="513" y="892"/>
      <point x="526" y="820"/>
      <point x="526" y="797" type="curve"/>
    </contour>
    <contour>
      <point x="1015" y="0" type="curve"/>
      <point x="1085" y="8" type="line"/>
      <point x="1085" y="199"/>
      <point x="1085" y="370"/>
      <point x="1085" y="541" type="curve"/>
      <point x="1119" y="567" type="line"/>
      <point x="1104" y="607"/>
      <point x="1090" y="648"/>
      <point x="1079" y="690" type="curve"/>
      <point x="1010" y="690"/>
      <point x="951" y="656"/>
      <point x="951" y="605" type="curve"/>
      <point x="951" y="565"/>
      <point x="993" y="215"/>
    </contour>
  </outline>
</glyph>
<glyph name="uniFDFD" format="2">
  <advance width="1942"/>
  <unicode hex="FDFD"/>
  <outline>
    <contour>
      <point x="163" y="249" type="curve"/>
      <point x="184" y="266"/>
      <point x="193" y="282"/>
      <point x="199" y="290" type="curve"/>
      <point x="186" y="301"/>
      <point x="175" y="311"/>
      <point x="162" y="326" type="curve"/>
      <point x="151" y="315"/>
      <point x="136" y="298"/>
      <point x="122" y="285" type="curve"/>
      <point x="138" y="269"/>
      <point x="150" y="258"/>
    </contour>
    <contour>
      <point x="596" y="-43" type="curve"/>
      <point x="574" y="-42"/>
      <point x="553" y="-38"/>
      <point x="534" y="-32" type="curve" smooth="yes"/>
      <point x="515" y="-26"/>
      <point x="499" y="-18"/>
      <point x="485" y="-6" type="curve"/>
      <point x="497" y="21"/>
      <point x="540" y="56"/>
      <point x="561" y="65" type="curve"/>
      <point x="563" y="35"/>
      <point x="575" y="-13"/>
    </contour>
    <contour>
      <point x="718" y="-179" type="curve"/>
      <point x="736" y="-163"/>
      <point x="747" y="-152"/>
      <point x="752" y="-141" type="curve"/>
      <point x="742" y="-129"/>
      <point x="731" y="-120"/>
      <point x="718" y="-107" type="curve"/>
      <point x="708" y="-118"/>
      <point x="694" y="-132"/>
      <point x="681" y="-144" type="curve"/>
      <point x="692" y="-158"/>
      <point x="706" y="-169"/>
    </contour>
    <contour>
      <point x="804" y="-171" type="curve"/>
      <point x="820" y="-155"/>
      <point x="831" y="-144"/>
      <point x="837" y="-132" type="curve"/>
      <point x="828" y="-122"/>
      <point x="814" y="-112"/>
      <point x="802" y="-98" type="curve"/>
      <point x="792" y="-110"/>
      <point x="779" y="-125"/>
      <point x="766" y="-136" type="curve"/>
      <point x="777" y="-150"/>
      <point x="791" y="-161"/>
    </contour>
    <contour>
      <point x="512" y="205" type="curve"/>
      <point x="490" y="206"/>
      <point x="469" y="210"/>
      <point x="450" y="217" type="curve" smooth="yes"/>
      <point x="431" y="224"/>
      <point x="414" y="232"/>
      <point x="401" y="242" type="curve"/>
      <point x="411" y="266"/>
      <point x="447" y="299"/>
      <point x="478" y="313" type="curve"/>
      <point x="481" y="282"/>
      <point x="490" y="237"/>
    </contour>
    <contour>
      <point x="441" y="454" type="curve"/>
      <point x="418" y="456"/>
      <point x="399" y="459"/>
      <point x="379" y="466" type="curve" smooth="yes"/>
      <point x="359" y="473"/>
      <point x="343" y="480"/>
      <point x="330" y="492" type="curve"/>
      <point x="341" y="520"/>
      <point x="384" y="552"/>
      <point x="406" y="563" type="curve"/>
      <point x="410" y="529"/>
      <point x="420" y="483"/>
    </contour>
    <contour>
      <point x="674" y="578" type="curve"/>
      <point x="651" y="579"/>
      <point x="630" y="580"/>
      <point x="608" y="586" type="curve" smooth="yes"/>
      <point x="591" y="591"/>
      <point x="575" y="602"/>
      <point x="564" y="610" type="curve"/>
      <point x="587" y="638"/>
      <point x="624" y="657"/>
      <point x="659" y="668" type="curve"/>
      <point x="664" y="635"/>
      <point x="669" y="604"/>
    </contour>
    <contour>
      <point x="1204" y="-174" type="curve" smooth="yes"/>
      <point x="1275" y="-174"/>
      <point x="1317" y="-112"/>
      <point x="1328" y="-45" type="curve"/>
      <point x="1340" y="-55"/>
      <point x="1355" y="-60"/>
      <point x="1374" y="-60" type="curve" smooth="yes"/>
      <point x="1376" y="-60"/>
      <point x="1378" y="-59"/>
      <point x="1378" y="-57" type="curve"/>
      <point x="1379" y="-59"/>
      <point x="1380" y="-60"/>
      <point x="1383" y="-60" type="curve" smooth="yes"/>
      <point x="1453" y="-60"/>
      <point x="1454" y="-36"/>
      <point x="1463" y="-11" type="curve" smooth="yes"/>
      <point x="1467" y="0"/>
      <point x="1469" y="9"/>
      <point x="1469" y="17" type="curve" smooth="yes"/>
      <point x="1469" y="65"/>
      <point x="1466" y="109"/>
      <point x="1463" y="159" type="curve"/>
      <point x="1460" y="208"/>
      <point x="1457" y="260"/>
      <point x="1455" y="319" type="curve"/>
      <point x="1440" y="309"/>
      <point x="1430" y="302"/>
      <point x="1417" y="287" type="curve"/>
      <point x="1428" y="189"/>
      <point x="1438" y="92"/>
      <point x="1445" y="-2" type="curve"/>
      <point x="1428" y="-11"/>
      <point x="1407" y="-17"/>
      <point x="1383" y="-17" type="curve" smooth="yes"/>
      <point x="1380" y="-17"/>
      <point x="1379" y="-18"/>
      <point x="1378" y="-20" type="curve"/>
      <point x="1377" y="-15"/>
      <point x="1360" y="-16"/>
      <point x="1352" y="-15" type="curve" smooth="yes"/>
      <point x="1346" y="-14"/>
      <point x="1337" y="-10"/>
      <point x="1330" y="-6" type="curve"/>
      <point x="1326" y="38"/>
      <point x="1296" y="93"/>
      <point x="1287" y="132" type="curve"/>
      <point x="1266" y="122"/>
      <point x="1254" y="112"/>
      <point x="1254" y="93" type="curve" smooth="yes"/>
      <point x="1254" y="66"/>
      <point x="1276" y="31"/>
      <point x="1282" y="20" type="curve" smooth="yes"/>
      <point x="1292" y="3"/>
      <point x="1299" y="-8"/>
      <point x="1309" y="-32" type="curve"/>
      <point x="1291" y="-88"/>
      <point x="1255" y="-130"/>
      <point x="1191" y="-130" type="curve" smooth="yes"/>
      <point x="1173" y="-130"/>
      <point x="1164" y="-130"/>
      <point x="1138" y="-125" type="curve"/>
      <point x="1130" y="-143" type="line"/>
      <point x="1152" y="-162"/>
      <point x="1188" y="-174"/>
    </contour>
    <contour>
      <point x="756" y="499" type="curve" smooth="yes"/>
      <point x="792" y="499"/>
      <point x="806" y="503"/>
      <point x="836" y="519" type="curve"/>
      <point x="851" y="504"/>
      <point x="877" y="499"/>
      <point x="900" y="499" type="curve" smooth="yes"/>
      <point x="938" y="499"/>
      <point x="959" y="505"/>
      <point x="967" y="519" type="curve" smooth="yes"/>
      <point x="977" y="537"/>
      <point x="987" y="560"/>
      <point x="987" y="575" type="curve"/>
      <point x="985" y="671"/>
      <point x="977" y="760"/>
      <point x="973" y="877" type="curve"/>
      <point x="958" y="867"/>
      <point x="948" y="859"/>
      <point x="935" y="845" type="curve"/>
      <point x="946" y="748"/>
      <point x="955" y="650"/>
      <point x="962" y="557" type="curve"/>
      <point x="945" y="547"/>
      <point x="924" y="542"/>
      <point x="900" y="542" type="curve" smooth="yes"/>
      <point x="899" y="542" type="line" smooth="yes"/>
      <point x="876" y="542"/>
      <point x="857" y="547"/>
      <point x="842" y="557" type="curve"/>
      <point x="839" y="641"/>
      <point x="839" y="695"/>
      <point x="835" y="808" type="curve"/>
      <point x="822" y="800"/>
      <point x="811" y="792"/>
      <point x="797" y="776" type="curve"/>
      <point x="801" y="707"/>
      <point x="809" y="643"/>
      <point x="819" y="557" type="curve"/>
      <point x="794" y="544"/>
      <point x="773" y="542"/>
      <point x="758" y="542" type="curve" smooth="yes"/>
      <point x="732" y="542"/>
      <point x="714" y="547"/>
      <point x="699" y="557" type="curve"/>
      <point x="699" y="568"/>
      <point x="698" y="580"/>
      <point x="698" y="592" type="curve" smooth="yes"/>
      <point x="697" y="632"/>
      <point x="696" y="679"/>
      <point x="693" y="761" type="curve"/>
      <point x="678" y="751"/>
      <point x="666" y="743"/>
      <point x="651" y="729" type="curve"/>
      <point x="653" y="706" type="line"/>
      <point x="613" y="688"/>
      <point x="574" y="664"/>
      <point x="557" y="636" type="curve" smooth="yes"/>
      <point x="551" y="627"/>
      <point x="537" y="594"/>
      <point x="537" y="584" type="curve" smooth="yes"/>
      <point x="537" y="575"/>
      <point x="549" y="566"/>
      <point x="562" y="559" type="curve" smooth="yes"/>
      <point x="592" y="542"/>
      <point x="609" y="533"/>
      <point x="655" y="532" type="curve"/>
      <point x="675" y="568" type="line"/>
      <point x="678" y="548" type="line" smooth="yes"/>
      <point x="684" y="513"/>
      <point x="719" y="499"/>
    </contour>
    <contour>
      <point x="780" y="828" type="curve" smooth="yes"/>
      <point x="793" y="828"/>
      <point x="804" y="837"/>
      <point x="812" y="853" type="curve"/>
      <point x="817" y="845"/>
      <point x="826" y="842"/>
      <point x="834" y="842" type="curve" smooth="yes"/>
      <point x="854" y="842"/>
      <point x="868" y="864"/>
      <point x="868" y="882" type="curve" smooth="yes"/>
      <point x="868" y="888"/>
      <point x="866" y="909"/>
      <point x="856" y="924" type="curve"/>
      <point x="851" y="923"/>
      <point x="839" y="916"/>
      <point x="839" y="906" type="curve" smooth="yes"/>
      <point x="839" y="904"/>
      <point x="840" y="901"/>
      <point x="841" y="899" type="curve" smooth="yes"/>
      <point x="846" y="887"/>
      <point x="850" y="878"/>
      <point x="851" y="874" type="curve"/>
      <point x="849" y="870"/>
      <point x="844" y="866"/>
      <point x="838" y="866" type="curve" smooth="yes"/>
      <point x="819" y="866"/>
      <point x="814" y="881"/>
      <point x="812" y="903" type="curve"/>
      <point x="797" y="893" type="line"/>
      <point x="797" y="886"/>
      <point x="798" y="878"/>
      <point x="798" y="871" type="curve" smooth="yes"/>
      <point x="798" y="861"/>
      <point x="791" y="852"/>
      <point x="782" y="852" type="curve" smooth="yes"/>
      <point x="772" y="852"/>
      <point x="766" y="856"/>
      <point x="766" y="870" type="curve" smooth="yes"/>
      <point x="766" y="875"/>
      <point x="766" y="876"/>
      <point x="768" y="886" type="curve"/>
      <point x="759" y="888" type="line"/>
      <point x="754" y="879"/>
      <point x="751" y="867"/>
      <point x="751" y="859" type="curve" smooth="yes"/>
      <point x="751" y="840"/>
      <point x="763" y="828"/>
    </contour>
    <contour>
      <point x="1547" y="-60" type="curve"/>
      <point x="1573" y="-55" type="line"/>
      <point x="1576" y="9"/>
      <point x="1577" y="54"/>
      <point x="1577" y="91" type="curve" smooth="yes"/>
      <point x="1577" y="127" type="line" smooth="yes"/>
      <point x="1577" y="137"/>
      <point x="1575" y="227"/>
      <point x="1574" y="238" type="curve"/>
      <point x="1589" y="251" type="line"/>
      <point x="1581" y="277"/>
      <point x="1575" y="286"/>
      <point x="1569" y="319" type="curve"/>
      <point x="1549" y="315"/>
      <point x="1532" y="305"/>
      <point x="1532" y="274" type="curve" smooth="yes"/>
      <point x="1532" y="234"/>
      <point x="1540" y="161"/>
      <point x="1542" y="124" type="curve" smooth="yes"/>
      <point x="1545" y="64"/>
      <point x="1547" y="25"/>
    </contour>
    <contour>
      <point x="1070" y="499" type="curve"/>
      <point x="1096" y="504" type="line"/>
      <point x="1099" y="569"/>
      <point x="1100" y="614"/>
      <point x="1100" y="651" type="curve" smooth="yes"/>
      <point x="1100" y="687" type="line" smooth="yes"/>
      <point x="1100" y="703"/>
      <point x="1097" y="760"/>
      <point x="1097" y="797" type="curve"/>
      <point x="1112" y="810" type="line"/>
      <point x="1104" y="833"/>
      <point x="1099" y="845"/>
      <point x="1091" y="877" type="curve"/>
      <point x="1074" y="875"/>
      <point x="1054" y="864"/>
      <point x="1054" y="833" type="curve" smooth="yes"/>
      <point x="1054" y="831"/>
      <point x="1055" y="829"/>
      <point x="1055" y="827" type="curve" smooth="yes"/>
      <point x="1058" y="797"/>
      <point x="1061" y="754"/>
      <point x="1062" y="716" type="curve" smooth="yes"/>
      <point x="1064" y="645"/>
      <point x="1068" y="599"/>
    </contour>
    <contour>
      <point x="796" y="915" type="line"/>
      <point x="808" y="931"/>
      <point x="812" y="948"/>
      <point x="812" y="967" type="curve" smooth="yes"/>
      <point x="812" y="1006"/>
      <point x="809" y="1024"/>
      <point x="803" y="1058" type="curve"/>
      <point x="789" y="1052"/>
      <point x="781" y="1039"/>
      <point x="781" y="1023" type="curve" smooth="yes"/>
      <point x="781" y="1008"/>
      <point x="793" y="985"/>
      <point x="793" y="916" type="curve"/>
    </contour>
    <contour>
      <point x="1834" y="297" type="curve"/>
      <point x="1853" y="316"/>
      <point x="1862" y="327"/>
      <point x="1870" y="338" type="curve"/>
      <point x="1858" y="349"/>
      <point x="1846" y="361"/>
      <point x="1833" y="375" type="curve"/>
      <point x="1822" y="362"/>
      <point x="1806" y="346"/>
      <point x="1793" y="334" type="curve"/>
      <point x="1805" y="321"/>
      <point x="1820" y="308"/>
    </contour>
    <contour>
      <point x="412" y="-273" type="curve"/>
      <point x="425" y="-264"/>
      <point x="436" y="-256"/>
      <point x="449" y="-241" type="curve"/>
      <point x="440" y="-146"/>
      <point x="427" y="-95"/>
      <point x="418" y="-12" type="curve"/>
      <point x="432" y="-2"/>
      <point x="447" y="10"/>
      <point x="465" y="21" type="curve"/>
      <point x="458" y="7"/>
      <point x="455" y="-6"/>
      <point x="455" y="-17" type="curve" smooth="yes"/>
      <point x="455" y="-66"/>
      <point x="545" y="-83"/>
      <point x="600" y="-83" type="curve"/>
      <point x="607" y="-59" type="line"/>
      <point x="621" y="-74"/>
      <point x="638" y="-83"/>
      <point x="658" y="-83" type="curve" smooth="yes"/>
      <point x="707" y="-83"/>
      <point x="755" y="-59"/>
      <point x="770" y="-35" type="curve"/>
      <point x="795" y="-58"/>
      <point x="823" y="-68"/>
      <point x="858" y="-68" type="curve" smooth="yes"/>
      <point x="964" y="-68"/>
      <point x="985" y="-57"/>
      <point x="1034" y="-32" type="curve" smooth="yes"/>
      <point x="1082" y="-7"/>
      <point x="1095" y="-1"/>
      <point x="1137" y="-1" type="curve" smooth="yes"/>
      <point x="1146" y="-1"/>
      <point x="1153" y="-2"/>
      <point x="1171" y="-5" type="curve"/>
      <point x="1193" y="37" type="line"/>
      <point x="1148" y="37"/>
      <point x="1111" y="42"/>
      <point x="1079" y="63" type="curve" smooth="yes"/>
      <point x="1068" y="70"/>
      <point x="1058" y="77"/>
      <point x="1048" y="83" type="curve" smooth="yes"/>
      <point x="1044" y="86" type="line"/>
      <point x="1051" y="92"/>
      <point x="1056" y="99"/>
      <point x="1061" y="107" type="curve" smooth="yes"/>
      <point x="1075" y="128"/>
      <point x="1083" y="152"/>
      <point x="1087" y="179" type="curve"/>
      <point x="1100" y="168"/>
      <point x="1144" y="166"/>
      <point x="1162" y="166" type="curve" smooth="yes"/>
      <point x="1197" y="166"/>
      <point x="1239" y="173"/>
      <point x="1245" y="185" type="curve" smooth="yes"/>
      <point x="1254" y="203"/>
      <point x="1264" y="226"/>
      <point x="1264" y="241" type="curve" smooth="yes"/>
      <point x="1264" y="290"/>
      <point x="1261" y="337"/>
      <point x="1258" y="384" type="curve" smooth="yes"/>
      <point x="1256" y="415" type="line"/>
      <point x="1319" y="415" type="line"/>
      <point x="1322" y="348" type="line" smooth="yes"/>
      <point x="1326" y="261"/>
      <point x="1330" y="210"/>
      <point x="1331" y="166" type="curve"/>
      <point x="1355" y="170" type="line"/>
      <point x="1359" y="260"/>
      <point x="1358" y="284"/>
      <point x="1358" y="330" type="curve" smooth="yes"/>
      <point x="1358" y="351"/>
      <point x="1358" y="384"/>
      <point x="1357" y="410" type="curve" smooth="yes"/>
      <point x="1357" y="415" type="line"/>
      <point x="1398" y="415" type="line" smooth="yes"/>
      <point x="1429" y="415"/>
      <point x="1444" y="424"/>
      <point x="1452" y="431" type="curve"/>
      <point x="1472" y="419"/>
      <point x="1503" y="415"/>
      <point x="1521" y="415" type="curve" smooth="yes"/>
      <point x="1555" y="415"/>
      <point x="1581" y="419"/>
      <point x="1588" y="429" type="curve"/>
      <point x="1602" y="419"/>
      <point x="1614" y="415"/>
      <point x="1634" y="415" type="curve" smooth="yes"/>
      <point x="1655" y="415"/>
      <point x="1679" y="421"/>
      <point x="1684" y="430" type="curve"/>
      <point x="1692" y="445" type="line"/>
      <point x="1709" y="427"/>
      <point x="1742" y="415"/>
      <point x="1773" y="415" type="curve"/>
      <point x="1797" y="415"/>
      <point x="1832" y="420"/>
      <point x="1874" y="445" type="curve"/>
      <point x="1881" y="464"/>
      <point x="1894" y="484"/>
      <point x="1894" y="503" type="curve" smooth="yes"/>
      <point x="1894" y="511"/>
      <point x="1892" y="522"/>
      <point x="1891" y="530" type="curve" smooth="yes"/>
      <point x="1886" y="563"/>
      <point x="1876" y="593"/>
      <point x="1873" y="625" type="curve"/>
      <point x="1855" y="615"/>
      <point x="1835" y="599"/>
      <point x="1835" y="577" type="curve" smooth="yes"/>
      <point x="1835" y="562"/>
      <point x="1853" y="530"/>
      <point x="1866" y="478" type="curve"/>
      <point x="1824" y="458"/>
      <point x="1775" y="458"/>
      <point x="1770" y="458" type="curve" smooth="yes"/>
      <point x="1740" y="458"/>
      <point x="1723" y="465"/>
      <point x="1704" y="477" type="curve"/>
      <point x="1713" y="504"/>
      <point x="1724" y="535"/>
      <point x="1733" y="557" type="curve"/>
      <point x="1729" y="561"/>
      <point x="1722" y="561"/>
      <point x="1716" y="561" type="curve" smooth="yes"/>
      <point x="1697" y="561"/>
      <point x="1686" y="514"/>
      <point x="1674" y="481" type="curve" smooth="yes"/>
      <point x="1671" y="474"/>
      <point x="1668" y="468"/>
      <point x="1666" y="464" type="curve"/>
      <point x="1651" y="459"/>
      <point x="1642" y="459"/>
      <point x="1635" y="459" type="curve" smooth="yes"/>
      <point x="1623" y="459"/>
      <point x="1616" y="460"/>
      <point x="1604" y="466" type="curve"/>
      <point x="1614" y="493"/>
      <point x="1624" y="527"/>
      <point x="1634" y="552" type="curve"/>
      <point x="1630" y="555"/>
      <point x="1626" y="556"/>
      <point x="1621" y="556" type="curve" smooth="yes"/>
      <point x="1598" y="556"/>
      <point x="1591" y="524"/>
      <point x="1585" y="502" type="curve" smooth="yes"/>
      <point x="1581" y="489"/>
      <point x="1576" y="470"/>
      <point x="1571" y="463" type="curve"/>
      <point x="1558" y="458"/>
      <point x="1546" y="458"/>
      <point x="1527" y="458" type="curve" smooth="yes"/>
      <point x="1510" y="458"/>
      <point x="1491" y="458"/>
      <point x="1478" y="464" type="curve"/>
      <point x="1486" y="480"/>
      <point x="1491" y="494"/>
      <point x="1500" y="516" type="curve"/>
      <point x="1497" y="518"/>
      <point x="1490" y="520"/>
      <point x="1487" y="520" type="curve" smooth="yes"/>
      <point x="1471" y="520"/>
      <point x="1464" y="503"/>
      <point x="1460" y="496" type="curve" smooth="yes"/>
      <point x="1449" y="476"/>
      <point x="1432" y="458"/>
      <point x="1394" y="458" type="curve" smooth="yes"/>
      <point x="1356" y="458" type="line"/>
      <point x="1356" y="465"/>
      <point x="1356" y="473"/>
      <point x="1356" y="481" type="curve" smooth="yes"/>
      <point x="1354" y="531"/>
      <point x="1352" y="604"/>
      <point x="1352" y="609" type="curve"/>
      <point x="1367" y="622" type="line"/>
      <point x="1359" y="646"/>
      <point x="1355" y="659"/>
      <point x="1348" y="688" type="curve"/>
      <point x="1320" y="686"/>
      <point x="1310" y="665"/>
      <point x="1310" y="646" type="curve" smooth="yes"/>
      <point x="1310" y="642" type="line" smooth="yes"/>
      <point x="1310" y="641"/>
      <point x="1310" y="640"/>
      <point x="1311" y="638" type="curve"/>
      <point x="1311" y="628"/>
      <point x="1317" y="471"/>
      <point x="1317" y="459" type="curve" smooth="yes"/>
      <point x="1317" y="458" type="line"/>
      <point x="1253" y="458" type="line"/>
      <point x="1252" y="470" type="line" smooth="yes"/>
      <point x="1251" y="483"/>
      <point x="1240" y="642"/>
      <point x="1240" y="671" type="curve"/>
      <point x="1227" y="663"/>
      <point x="1218" y="655"/>
      <point x="1203" y="639" type="curve"/>
      <point x="1206" y="607"/>
      <point x="1210" y="559"/>
      <point x="1215" y="502" type="curve" smooth="yes"/>
      <point x="1219" y="458" type="line"/>
      <point x="503" y="458" type="line" smooth="yes"/>
      <point x="471" y="458"/>
      <point x="448" y="538"/>
      <point x="437" y="566" type="curve" smooth="yes"/>
      <point x="429" y="587"/>
      <point x="417" y="606"/>
      <point x="405" y="606" type="curve" smooth="yes"/>
      <point x="364" y="606"/>
      <point x="281" y="542"/>
      <point x="268" y="531" type="curve" smooth="yes"/>
      <point x="248" y="514"/>
      <point x="239" y="478"/>
      <point x="239" y="467" type="curve" smooth="yes"/>
      <point x="239" y="416"/>
      <point x="242" y="375"/>
      <point x="250" y="305" type="curve" smooth="yes"/>
      <point x="258" y="233"/>
      <point x="268" y="177"/>
      <point x="291" y="124" type="curve"/>
      <point x="269" y="79"/>
      <point x="199" y="54"/>
      <point x="152" y="54" type="curve" smooth="yes"/>
      <point x="107" y="54"/>
      <point x="74" y="81"/>
      <point x="74" y="141" type="curve" smooth="yes"/>
      <point x="74" y="152"/>
      <point x="77" y="167"/>
      <point x="81" y="181" type="curve"/>
      <point x="60" y="186" type="line"/>
      <point x="51" y="147"/>
      <point x="49" y="137"/>
      <point x="49" y="113" type="curve" smooth="yes"/>
      <point x="49" y="53"/>
      <point x="81" y="7"/>
      <point x="151" y="7" type="curve" smooth="yes"/>
      <point x="229" y="7"/>
      <point x="312" y="70"/>
      <point x="312" y="145" type="curve" smooth="yes"/>
      <point x="312" y="155"/>
      <point x="311" y="165"/>
      <point x="310" y="173" type="curve"/>
      <point x="322" y="167"/>
      <point x="333" y="166"/>
      <point x="346" y="166" type="curve" smooth="yes"/>
      <point x="373" y="166"/>
      <point x="396" y="174"/>
      <point x="418" y="182" type="curve"/>
      <point x="447" y="170"/>
      <point x="483" y="166"/>
      <point x="516" y="166" type="curve"/>
      <point x="523" y="190" type="line"/>
      <point x="537" y="175"/>
      <point x="553" y="166"/>
      <point x="571" y="166" type="curve" smooth="yes"/>
      <point x="632" y="166" type="line" smooth="yes"/>
      <point x="720" y="166"/>
      <point x="747" y="170"/>
      <point x="808" y="202" type="curve" smooth="yes"/>
      <point x="838" y="218"/>
      <point x="865" y="232"/>
      <point x="908" y="232" type="curve" smooth="yes"/>
      <point x="915" y="232"/>
      <point x="925" y="231"/>
      <point x="944" y="229" type="curve"/>
      <point x="966" y="271" type="line"/>
      <point x="938" y="271"/>
      <point x="921" y="271"/>
      <point x="900" y="276" type="curve" smooth="yes"/>
      <point x="830" y="293"/>
      <point x="792" y="356"/>
      <point x="734" y="356" type="curve" smooth="yes"/>
      <point x="699" y="356"/>
      <point x="666" y="341"/>
      <point x="666" y="310" type="curve" smooth="yes"/>
      <point x="666" y="300"/>
      <point x="669" y="292"/>
      <point x="674" y="287" type="curve"/>
      <point x="692" y="301"/>
      <point x="710" y="310"/>
      <point x="736" y="310" type="curve" smooth="yes"/>
      <point x="767" y="310"/>
      <point x="793" y="285"/>
      <point x="813" y="269" type="curve" smooth="yes"/>
      <point x="823" y="261"/>
      <point x="833" y="256"/>
      <point x="845" y="250" type="curve"/>
      <point x="785" y="238"/>
      <point x="763" y="208"/>
      <point x="627" y="208" type="curve" smooth="yes"/>
      <point x="575" y="208" type="line" smooth="yes"/>
      <point x="542" y="208"/>
      <point x="518" y="293"/>
      <point x="508" y="318" type="curve" smooth="yes"/>
      <point x="500" y="339"/>
      <point x="490" y="357"/>
      <point x="477" y="357" type="curve" smooth="yes"/>
      <point x="429" y="357"/>
      <point x="371" y="281"/>
      <point x="371" y="231" type="curve" smooth="yes"/>
      <point x="371" y="224"/>
      <point x="372" y="219"/>
      <point x="375" y="214" type="curve"/>
      <point x="366" y="211"/>
      <point x="354" y="208"/>
      <point x="342" y="208" type="curve" smooth="yes"/>
      <point x="328" y="208"/>
      <point x="315" y="211"/>
      <point x="302" y="219" type="curve"/>
      <point x="296" y="250" type="line"/>
      <point x="285" y="323" type="line" smooth="yes"/>
      <point x="276" y="382"/>
      <point x="267" y="425"/>
      <point x="263" y="485" type="curve"/>
      <point x="277" y="496"/>
      <point x="294" y="508"/>
      <point x="310" y="519" type="curve"/>
      <point x="303" y="505"/>
      <point x="300" y="492"/>
      <point x="300" y="480" type="curve" smooth="yes"/>
      <point x="300" y="431"/>
      <point x="391" y="415"/>
      <point x="445" y="415" type="curve"/>
      <point x="452" y="439" type="line"/>
      <point x="463" y="425"/>
      <point x="481" y="415"/>
      <point x="499" y="415" type="curve" smooth="yes"/>
      <point x="1223" y="415" type="line"/>
      <point x="1224" y="400" type="line"/>
      <point x="1227" y="366" type="line" smooth="yes"/>
      <point x="1232" y="317"/>
      <point x="1236" y="270"/>
      <point x="1240" y="223" type="curve"/>
      <point x="1221" y="212"/>
      <point x="1193" y="208"/>
      <point x="1158" y="208" type="curve" smooth="yes"/>
      <point x="1127" y="208"/>
      <point x="1107" y="209"/>
      <point x="1089" y="219" type="curve"/>
      <point x="1085" y="264"/>
      <point x="1055" y="321"/>
      <point x="1047" y="357" type="curve"/>
      <point x="1027" y="346"/>
      <point x="1014" y="337"/>
      <point x="1014" y="318" type="curve" smooth="yes"/>
      <point x="1014" y="288"/>
      <point x="1035" y="256"/>
      <point x="1042" y="244" type="curve" smooth="yes"/>
      <point x="1052" y="226"/>
      <point x="1059" y="217"/>
      <point x="1069" y="193" type="curve"/>
      <point x="1062" y="171"/>
      <point x="1052" y="152"/>
      <point x="1040" y="137" type="curve" smooth="yes"/>
      <point x="1031" y="125"/>
      <point x="1020" y="117"/>
      <point x="1007" y="109" type="curve"/>
      <point x="1002" y="112"/>
      <point x="996" y="115"/>
      <point x="990" y="117" type="curve" smooth="yes"/>
      <point x="980" y="121"/>
      <point x="971" y="123"/>
      <point x="960" y="123" type="curve" smooth="yes"/>
      <point x="923" y="123"/>
      <point x="893" y="106"/>
      <point x="893" y="76" type="curve" smooth="yes"/>
      <point x="893" y="66"/>
      <point x="896" y="59"/>
      <point x="901" y="54" type="curve"/>
      <point x="920" y="67"/>
      <point x="936" y="76"/>
      <point x="962" y="76" type="curve" smooth="yes"/>
      <point x="1002" y="76"/>
      <point x="1021" y="40"/>
      <point x="1072" y="17" type="curve"/>
      <point x="1018" y="6"/>
      <point x="988" y="-25"/>
      <point x="858" y="-25" type="curve" smooth="yes"/>
      <point x="829" y="-25"/>
      <point x="807" y="-17"/>
      <point x="789" y="-5" type="curve"/>
      <point x="802" y="25" type="line" smooth="yes"/>
      <point x="807" y="36"/>
      <point x="811" y="46"/>
      <point x="815" y="56" type="curve"/>
      <point x="811" y="58"/>
      <point x="807" y="60"/>
      <point x="800" y="60" type="curve" smooth="yes"/>
      <point x="784" y="59"/>
      <point x="772" y="31"/>
      <point x="764" y="15" type="curve" smooth="yes"/>
      <point x="758" y="3"/>
      <point x="753" y="-8"/>
      <point x="745" y="-12" type="curve" smooth="yes"/>
      <point x="708" y="-32"/>
      <point x="679" y="-40"/>
      <point x="658" y="-40" type="curve" smooth="yes"/>
      <point x="620" y="-40"/>
      <point x="607" y="54"/>
      <point x="577" y="97" type="curve" smooth="yes"/>
      <point x="572" y="104"/>
      <point x="566" y="108"/>
      <point x="560" y="108" type="curve" smooth="yes"/>
      <point x="529" y="108"/>
      <point x="469" y="68"/>
      <point x="444" y="50" type="curve" smooth="yes"/>
      <point x="427" y="38"/>
      <point x="416" y="28"/>
      <point x="414" y="25" type="curve" smooth="yes"/>
      <point x="405" y="8"/>
      <point x="395" y="-18"/>
      <point x="395" y="-31" type="curve" smooth="yes"/>
      <point x="395" y="-105"/>
      <point x="408" y="-156"/>
    </contour>
  </outline>
</glyph>
